<svg xmlns="http://www.w3.org/2000/svg" width="1200" height="1800" viewBox="0 0 1200 1800">
      <defs>
        <linearGradient id="sky" x2="0" y2="1"><stop stop-color="#0b2440"/><stop offset=".57" stop-color="#29617a"/><stop offset="1" stop-color="#91a6a0"/></linearGradient>
        <linearGradient id="land" x2=".7" y2="1"><stop stop-color="#367b89"/><stop offset="1" stop-color="#143e5d"/></linearGradient>
        <radialGradient id="halo"><stop stop-color="#f5d9a3" stop-opacity=".88"/><stop offset="1" stop-color="#f5d9a3" stop-opacity="0"/></radialGradient>
        <linearGradient id="fur" x2=".8" y2="1"><stop stop-color="#e5ad74"/><stop offset=".68" stop-color="#915b4f"/><stop offset="1" stop-color="#5c3d43"/></linearGradient>
        <linearGradient id="metal" x2="1" y2="1"><stop stop-color="#fff0ba"/><stop offset=".46" stop-color="#ad8157"/><stop offset="1" stop-color="#f4d79b"/></linearGradient>
        <linearGradient id="blade" x2="1" y2="0"><stop stop-color="#fff5d5"/><stop offset=".48" stop-color="#9caec2"/><stop offset="1" stop-color="#ecf4ed"/></linearGradient>
      </defs>
      <rect width="1200" height="1800" fill="#0a1322"/>
      <rect x="24" y="24" width="1152" height="1752" rx="35" fill="url(#sky)"/>
      <g fill="#f6dfac"><circle cx="80" cy="838" r="4" opacity=".55"/><circle cx="883" cy="688" r="1" opacity=".75"/><circle cx="848" cy="568" r="2" opacity=".75"/><circle cx="369" cy="698" r="1" opacity=".28"/><circle cx="341" cy="299" r="2" opacity=".75"/><circle cx="597" cy="577" r="2" opacity=".4"/><circle cx="589" cy="485" r="3" opacity=".75"/><circle cx="329" cy="278" r="3" opacity=".28"/><circle cx="889" cy="619" r="2" opacity=".28"/><circle cx="967" cy="257" r="3" opacity=".55"/><circle cx="222" cy="175" r="3" opacity=".28"/><circle cx="332" cy="241" r="2" opacity=".28"/><circle cx="876" cy="459" r="1" opacity=".55"/><circle cx="355" cy="407" r="3" opacity=".75"/><circle cx="904" cy="358" r="1" opacity=".75"/><circle cx="969" cy="811" r="3" opacity=".75"/><circle cx="510" cy="297" r="3" opacity=".28"/><circle cx="639" cy="321" r="1" opacity=".4"/><circle cx="653" cy="421" r="1" opacity=".28"/><circle cx="169" cy="253" r="1" opacity=".28"/><circle cx="1080" cy="457" r="3" opacity=".75"/><circle cx="1004" cy="112" r="2" opacity=".55"/><circle cx="502" cy="214" r="2" opacity=".75"/><circle cx="247" cy="423" r="3" opacity=".4"/><circle cx="385" cy="656" r="1" opacity=".75"/><circle cx="662" cy="214" r="3" opacity=".4"/><circle cx="226" cy="780" r="3" opacity=".28"/><circle cx="351" cy="203" r="3" opacity=".55"/><circle cx="914" cy="100" r="2" opacity=".28"/><circle cx="369" cy="848" r="1" opacity=".4"/><circle cx="972" cy="770" r="1" opacity=".55"/><circle cx="362" cy="338" r="1" opacity=".75"/><circle cx="106" cy="302" r="1" opacity=".55"/><circle cx="179" cy="120" r="1" opacity=".4"/><circle cx="927" cy="251" r="3" opacity=".55"/><circle cx="185" cy="306" r="2" opacity=".4"/><circle cx="656" cy="197" r="2" opacity=".75"/><circle cx="233" cy="405" r="3" opacity=".4"/><circle cx="710" cy="683" r="1" opacity=".4"/><circle cx="600" cy="472" r="1" opacity=".4"/><circle cx="926" cy="785" r="2" opacity=".75"/><circle cx="328" cy="678" r="2" opacity=".75"/><circle cx="804" cy="287" r="2" opacity=".55"/><circle cx="936" cy="321" r="1" opacity=".28"/><circle cx="791" cy="367" r="3" opacity=".4"/><circle cx="199" cy="470" r="1" opacity=".4"/><circle cx="734" cy="178" r="2" opacity=".75"/><circle cx="1022" cy="117" r="4" opacity=".55"/><circle cx="295" cy="270" r="2" opacity=".4"/><circle cx="248" cy="99" r="1" opacity=".4"/><circle cx="931" cy="298" r="2" opacity=".28"/><circle cx="1002" cy="838" r="3" opacity=".75"/><circle cx="635" cy="562" r="2" opacity=".4"/><circle cx="466" cy="91" r="2" opacity=".75"/><circle cx="962" cy="525" r="2" opacity=".55"/><circle cx="446" cy="191" r="2" opacity=".4"/><circle cx="753" cy="379" r="2" opacity=".55"/><circle cx="152" cy="847" r="4" opacity=".4"/><circle cx="530" cy="564" r="2" opacity=".28"/><circle cx="279" cy="259" r="1" opacity=".75"/><circle cx="589" cy="270" r="2" opacity=".75"/><circle cx="886" cy="732" r="2" opacity=".4"/><circle cx="591" cy="319" r="3" opacity=".75"/><circle cx="1025" cy="239" r="2" opacity=".75"/><circle cx="904" cy="719" r="2" opacity=".75"/><circle cx="469" cy="732" r="3" opacity=".75"/></g><circle cx="920" cy="305" r="112" fill="#e6e6d3" opacity=".8"/><circle cx="968" cy="275" r="112" fill="#1d4c68"/><circle cx="920" cy="305" r="150" fill="none" stroke="#d5e1cb" opacity=".4" stroke-width="2"/><path d="M542 453h22 M553 442v22" stroke="#f6d99e" stroke-width="2" opacity=".68"/><path d="M852 264h22 M863 253v22" stroke="#f6d99e" stroke-width="2" opacity=".68"/><path d="M416 193h22 M427 182v22" stroke="#f6d99e" stroke-width="2" opacity=".68"/><path d="M968 684h22 M979 673v22" stroke="#f6d99e" stroke-width="2" opacity=".68"/><path d="M978 377h22 M989 366v22" stroke="#f6d99e" stroke-width="2" opacity=".68"/><path d="M630 596h22 M641 585v22" stroke="#f6d99e" stroke-width="2" opacity=".68"/><path d="M916 201h22 M927 190v22" stroke="#f6d99e" stroke-width="2" opacity=".68"/><path d="M596 262h22 M607 251v22" stroke="#f6d99e" stroke-width="2" opacity=".68"/>
      <path d="M0 965 Q245 870 405 933 T802 919 T1200 971 V1800 H0Z" fill="url(#land)"/><path d="M0 1130 C210 1030 393 1110 583 1047 S950 1060 1200 994 V1800 H0Z" fill="#0b1b30" opacity=".46"/><path d="M0 1435 Q300 1275 600 1448 T1200 1370 V1800 H0Z" fill="#081827" opacity=".62"/><path d="M-40 1190 Q145 1130 318 1190 T690 1190 T1280 1170" fill="none" stroke="#a7ded5" stroke-width="9" opacity=".21"/><path d="M-40 1300 Q145 1240 318 1300 T690 1300 T1280 1280" fill="none" stroke="#a7ded5" stroke-width="9" opacity=".21"/><path d="M-40 1430 Q145 1370 318 1430 T690 1430 T1280 1410" fill="none" stroke="#a7ded5" stroke-width="9" opacity=".21"/><path d="M-40 1560 Q145 1500 318 1560 T690 1560 T1280 1540" fill="none" stroke="#a7ded5" stroke-width="9" opacity=".21"/><path d="M90 1260 Q170 1180 250 1260 Q170 1320 90 1260" fill="#9ed8b1" opacity=".18"/><path d="M905 1260 Q985 1180 1065 1260 Q985 1320 905 1260" fill="#9ed8b1" opacity=".18"/>
      <path d="M210 1260V805Q600 520 990 805V1260" fill="none" stroke="#e9c68e" stroke-width="23" opacity=".4"/><path d="M225 1280H975" stroke="#f5dca9" stroke-width="18" opacity=".4"/><path d="M300 755L400 620 510 700 600 535 690 700 800 620 900 755Z" fill="#e8bc73" opacity=".32"/>
      <g transform="translate(840 530) rotate(0) scale(0.92)" opacity="0.78"><path d="M-88 -120Q-97 12 0 23Q97 12 88 -120Z" fill="url(#metal)" stroke="#fae3b1" stroke-width="8"/>
          <ellipse cx="0" cy="-120" rx="89" ry="20" fill="#a9dcdb" stroke="#f7e5b7" stroke-width="8"/>
          <path d="M0 23V106 M-52 108H52" stroke="#f4d9a0" stroke-width="20" stroke-linecap="round"/>
          <path d="M-89 -96Q-137 -94 -121 -30Q-105 0 -69 -8 M89 -96Q137 -94 121 -30Q105 0 69 -8" fill="none" stroke="#edd7ae" stroke-width="8"/></g><g transform="translate(600 1025) scale(0.98 0.98)"><path d="M115 260Q330 315 240 75Q225 25 194 60Q276 211 115 186" fill="none" stroke="#5c3d43" stroke-width="73" stroke-linecap="round"/>
        <path d="M117 258Q288 287 224 84" fill="none" stroke="#e5ad74" stroke-width="36" stroke-linecap="round" opacity=".8"/>
        <ellipse cx="0" cy="226" rx="159" ry="205" fill="url(#fur)" stroke="#5c3d43" stroke-width="10"/>
        <ellipse cx="2" cy="252" rx="106" ry="133" fill="#e5ad74" opacity=".7"/>
        <ellipse cx="-94" cy="393" rx="64" ry="43" fill="#e5ad74" stroke="#5c3d43" stroke-width="9"/>
        <ellipse cx="92" cy="393" rx="64" ry="43" fill="#e5ad74" stroke="#5c3d43" stroke-width="9"/>
        <path d="M-152 -153L-128 -318Q-75 -301 -53 -235 Q0 -265 53 -235Q75 -301 128 -318L152 -153Q195 5 0 24Q-195 5 -152 -153Z" fill="url(#fur)" stroke="#5c3d43" stroke-width="10" stroke-linejoin="round"/>
        <path d="M-121 -273Q-84 -269 -63 -225L-126 -191Z M121 -273Q84 -269 63 -225L126 -191Z" fill="#d99b98" opacity=".85"/>
        <path d="M-115 -166Q-65 -206 -9 -182 M115 -166Q65 -206 9 -182" fill="none" stroke="#5c3d43" stroke-width="13" opacity=".46"/>
        <ellipse cx="-46" cy="-66" rx="20" ry="28" fill="#e9c273"/><ellipse cx="46" cy="-66" rx="20" ry="28" fill="#e9c273"/><path d="M-46 -86v43 M46 -86v43" stroke="#1e2934" stroke-width="10" stroke-linecap="round"/><circle cx="-53" cy="-76" r="6" fill="#fff4d4"/><circle cx="39" cy="-76" r="6" fill="#fff4d4"/>
        <ellipse cx="-27" cy="-9" rx="49" ry="35" fill="#f6e5cf"/><ellipse cx="27" cy="-9" rx="49" ry="35" fill="#f6e5cf"/>
        <path d="M-18 -30Q0 -43 18 -30L0 -12Z" fill="#986e79"/>
        <path d="M0 -11v17m0 0q-21 17 -43 0m43 0q21 17 43 0" fill="none" stroke="#5c3d43" stroke-width="7" stroke-linecap="round"/>
        <path d="M-52 -14Q-140 -43 -180 -35 M-50 4Q-139 4 -179 24 M52 -14Q140 -43 180 -35 M50 4Q139 4 179 24" fill="none" stroke="#f2dec8" stroke-width="5" opacity=".8"/>
        <path d="M-140 103Q0 151 140 103" fill="none" stroke="#d7b77d" stroke-width="16"/>
        <circle cy="139" r="23" fill="#f5d186" stroke="#906b5a" stroke-width="5"/>
        <path d="M-95 141Q-135 171 -119 211 M95 141Q135 171 119 211" fill="none" stroke="#5c3d43" stroke-width="12" opacity=".3"/><path d="M-98 -273L-112 -348 -53 -305 0 -390 53 -305 112 -348 98 -273Z" fill="url(#metal)" stroke="#ffe2a8" stroke-width="9"/><circle cy="-318" r="12" fill="#f2d39c"/></g>
      
      <rect x="42" y="42" width="1116" height="1716" rx="24" fill="none" stroke="#d9b875" stroke-width="9" opacity=".86"/>
      <rect x="63" y="63" width="1074" height="1674" rx="16" fill="none" stroke="#f6e2ac" stroke-width="2" opacity=".58"/>
      <path d="M90 155V90h65 M1045 90h65v65 M90 1645v65h65 M1045 1710h65v-65" fill="none" stroke="#ffe5a9" stroke-width="9" opacity=".82"/>
      <circle cx="600" cy="85" r="8" fill="#9ddbcf"/><circle cx="600" cy="1715" r="8" fill="#9ddbcf"/>
    </svg>