<svg xmlns="http://www.w3.org/2000/svg" width="1200" height="1800" viewBox="0 0 1200 1800">
      <defs>
        <linearGradient id="sky" x2="0" y2="1"><stop stop-color="#0b2440"/><stop offset=".57" stop-color="#29617a"/><stop offset="1" stop-color="#91a6a0"/></linearGradient>
        <linearGradient id="land" x2=".7" y2="1"><stop stop-color="#367b89"/><stop offset="1" stop-color="#143e5d"/></linearGradient>
        <radialGradient id="halo"><stop stop-color="#f5d9a3" stop-opacity=".88"/><stop offset="1" stop-color="#f5d9a3" stop-opacity="0"/></radialGradient>
        <linearGradient id="fur" x2=".8" y2="1"><stop stop-color="#c6d5d3"/><stop offset=".68" stop-color="#748990"/><stop offset="1" stop-color="#49636c"/></linearGradient>
        <linearGradient id="metal" x2="1" y2="1"><stop stop-color="#fff0ba"/><stop offset=".46" stop-color="#ad8157"/><stop offset="1" stop-color="#f4d79b"/></linearGradient>
        <linearGradient id="blade" x2="1" y2="0"><stop stop-color="#fff5d5"/><stop offset=".48" stop-color="#9caec2"/><stop offset="1" stop-color="#ecf4ed"/></linearGradient>
      </defs>
      <rect width="1200" height="1800" fill="#0a1322"/>
      <rect x="24" y="24" width="1152" height="1752" rx="35" fill="url(#sky)"/>
      <g fill="#f6dfac"><circle cx="814" cy="591" r="2" opacity=".55"/><circle cx="513" cy="738" r="3" opacity=".28"/><circle cx="569" cy="811" r="2" opacity=".28"/><circle cx="423" cy="197" r="4" opacity=".75"/><circle cx="722" cy="780" r="2" opacity=".4"/><circle cx="862" cy="811" r="2" opacity=".55"/><circle cx="833" cy="605" r="4" opacity=".55"/><circle cx="590" cy="724" r="3" opacity=".75"/><circle cx="812" cy="569" r="2" opacity=".55"/><circle cx="1122" cy="663" r="4" opacity=".4"/><circle cx="1115" cy="616" r="3" opacity=".55"/><circle cx="244" cy="503" r="1" opacity=".75"/><circle cx="406" cy="220" r="4" opacity=".28"/><circle cx="1064" cy="407" r="2" opacity=".75"/><circle cx="661" cy="845" r="1" opacity=".4"/><circle cx="702" cy="777" r="3" opacity=".28"/><circle cx="1018" cy="301" r="4" opacity=".28"/><circle cx="1070" cy="364" r="2" opacity=".28"/><circle cx="503" cy="715" r="1" opacity=".55"/><circle cx="521" cy="284" r="1" opacity=".75"/><circle cx="939" cy="783" r="2" opacity=".75"/><circle cx="543" cy="212" r="1" opacity=".75"/><circle cx="604" cy="625" r="1" opacity=".28"/><circle cx="128" cy="720" r="2" opacity=".4"/><circle cx="271" cy="454" r="3" opacity=".28"/><circle cx="504" cy="833" r="2" opacity=".4"/><circle cx="936" cy="761" r="2" opacity=".4"/><circle cx="180" cy="459" r="1" opacity=".28"/><circle cx="326" cy="754" r="2" opacity=".4"/><circle cx="912" cy="190" r="1" opacity=".55"/><circle cx="837" cy="210" r="2" opacity=".55"/><circle cx="180" cy="420" r="4" opacity=".55"/><circle cx="658" cy="409" r="3" opacity=".4"/><circle cx="918" cy="226" r="3" opacity=".75"/><circle cx="865" cy="780" r="1" opacity=".4"/><circle cx="700" cy="803" r="4" opacity=".55"/><circle cx="286" cy="236" r="3" opacity=".28"/><circle cx="781" cy="821" r="1" opacity=".28"/><circle cx="202" cy="807" r="1" opacity=".28"/><circle cx="1110" cy="354" r="2" opacity=".28"/><circle cx="854" cy="815" r="2" opacity=".55"/><circle cx="661" cy="358" r="3" opacity=".55"/><circle cx="823" cy="835" r="3" opacity=".55"/><circle cx="495" cy="681" r="4" opacity=".4"/><circle cx="283" cy="437" r="2" opacity=".4"/><circle cx="1109" cy="163" r="2" opacity=".55"/><circle cx="800" cy="183" r="1" opacity=".28"/><circle cx="760" cy="324" r="2" opacity=".4"/><circle cx="75" cy="288" r="1" opacity=".28"/><circle cx="399" cy="192" r="1" opacity=".28"/><circle cx="958" cy="391" r="3" opacity=".28"/><circle cx="85" cy="461" r="1" opacity=".28"/><circle cx="251" cy="171" r="2" opacity=".4"/><circle cx="828" cy="281" r="2" opacity=".55"/><circle cx="815" cy="513" r="4" opacity=".55"/><circle cx="236" cy="355" r="2" opacity=".4"/><circle cx="700" cy="369" r="4" opacity=".28"/><circle cx="598" cy="296" r="3" opacity=".28"/><circle cx="198" cy="356" r="1" opacity=".4"/><circle cx="466" cy="564" r="2" opacity=".28"/><circle cx="1004" cy="255" r="2" opacity=".75"/><circle cx="89" cy="552" r="3" opacity=".28"/><circle cx="115" cy="768" r="4" opacity=".4"/><circle cx="1117" cy="796" r="2" opacity=".75"/><circle cx="172" cy="542" r="3" opacity=".4"/><circle cx="875" cy="417" r="2" opacity=".28"/></g><circle cx="920" cy="305" r="112" fill="#e6e6d3" opacity=".8"/><circle cx="968" cy="275" r="112" fill="#1d4c68"/><circle cx="920" cy="305" r="150" fill="none" stroke="#d5e1cb" opacity=".4" stroke-width="2"/><path d="M130 204h22 M141 193v22" stroke="#f6d99e" stroke-width="2" opacity=".68"/><path d="M635 155h22 M646 144v22" stroke="#f6d99e" stroke-width="2" opacity=".68"/><path d="M246 176h22 M257 165v22" stroke="#f6d99e" stroke-width="2" opacity=".68"/><path d="M1007 454h22 M1018 443v22" stroke="#f6d99e" stroke-width="2" opacity=".68"/><path d="M142 617h22 M153 606v22" stroke="#f6d99e" stroke-width="2" opacity=".68"/><path d="M821 689h22 M832 678v22" stroke="#f6d99e" stroke-width="2" opacity=".68"/><path d="M1015 562h22 M1026 551v22" stroke="#f6d99e" stroke-width="2" opacity=".68"/><path d="M232 299h22 M243 288v22" stroke="#f6d99e" stroke-width="2" opacity=".68"/>
      <path d="M0 965 Q245 870 405 933 T802 919 T1200 971 V1800 H0Z" fill="url(#land)"/><path d="M0 1130 C210 1030 393 1110 583 1047 S950 1060 1200 994 V1800 H0Z" fill="#0b1b30" opacity=".46"/><path d="M0 1435 Q300 1275 600 1448 T1200 1370 V1800 H0Z" fill="#081827" opacity=".62"/><path d="M-40 1190 Q145 1130 318 1190 T690 1190 T1280 1170" fill="none" stroke="#a7ded5" stroke-width="9" opacity=".21"/><path d="M-40 1300 Q145 1240 318 1300 T690 1300 T1280 1280" fill="none" stroke="#a7ded5" stroke-width="9" opacity=".21"/><path d="M-40 1430 Q145 1370 318 1430 T690 1430 T1280 1410" fill="none" stroke="#a7ded5" stroke-width="9" opacity=".21"/><path d="M-40 1560 Q145 1500 318 1560 T690 1560 T1280 1540" fill="none" stroke="#a7ded5" stroke-width="9" opacity=".21"/><path d="M90 1260 Q170 1180 250 1260 Q170 1320 90 1260" fill="#9ed8b1" opacity=".18"/><path d="M905 1260 Q985 1180 1065 1260 Q985 1320 905 1260" fill="#9ed8b1" opacity=".18"/>
      <path d="M0 1050L160 800 290 920 410 710 600 980 790 730 930 890 1070 710 1200 900V1210H0Z" fill="#e4cfab" opacity=".19"/><path d="M100 1140H1100V1060L600 750Z" fill="#efd3a3" opacity=".16"/>
      <g transform="translate(204 681) rotate(0) scale(0.45)" opacity="0.78"><path d="M-88 -120Q-97 12 0 23Q97 12 88 -120Z" fill="url(#metal)" stroke="#fae3b1" stroke-width="8"/>
          <ellipse cx="0" cy="-120" rx="89" ry="20" fill="#a9dcdb" stroke="#f7e5b7" stroke-width="8"/>
          <path d="M0 23V106 M-52 108H52" stroke="#f4d9a0" stroke-width="20" stroke-linecap="round"/>
          <path d="M-89 -96Q-137 -94 -121 -30Q-105 0 -69 -8 M89 -96Q137 -94 121 -30Q105 0 69 -8" fill="none" stroke="#edd7ae" stroke-width="8"/></g><g transform="translate(367 465) rotate(0) scale(0.45)" opacity="0.78"><path d="M-88 -120Q-97 12 0 23Q97 12 88 -120Z" fill="url(#metal)" stroke="#fae3b1" stroke-width="8"/>
          <ellipse cx="0" cy="-120" rx="89" ry="20" fill="#a9dcdb" stroke="#f7e5b7" stroke-width="8"/>
          <path d="M0 23V106 M-52 108H52" stroke="#f4d9a0" stroke-width="20" stroke-linecap="round"/>
          <path d="M-89 -96Q-137 -94 -121 -30Q-105 0 -69 -8 M89 -96Q137 -94 121 -30Q105 0 69 -8" fill="none" stroke="#edd7ae" stroke-width="8"/></g><g transform="translate(615 390) rotate(0) scale(0.45)" opacity="0.78"><path d="M-88 -120Q-97 12 0 23Q97 12 88 -120Z" fill="url(#metal)" stroke="#fae3b1" stroke-width="8"/>
          <ellipse cx="0" cy="-120" rx="89" ry="20" fill="#a9dcdb" stroke="#f7e5b7" stroke-width="8"/>
          <path d="M0 23V106 M-52 108H52" stroke="#f4d9a0" stroke-width="20" stroke-linecap="round"/>
          <path d="M-89 -96Q-137 -94 -121 -30Q-105 0 -69 -8 M89 -96Q137 -94 121 -30Q105 0 69 -8" fill="none" stroke="#edd7ae" stroke-width="8"/></g><g transform="translate(858 484) rotate(0) scale(0.45)" opacity="0.78"><path d="M-88 -120Q-97 12 0 23Q97 12 88 -120Z" fill="url(#metal)" stroke="#fae3b1" stroke-width="8"/>
          <ellipse cx="0" cy="-120" rx="89" ry="20" fill="#a9dcdb" stroke="#f7e5b7" stroke-width="8"/>
          <path d="M0 23V106 M-52 108H52" stroke="#f4d9a0" stroke-width="20" stroke-linecap="round"/>
          <path d="M-89 -96Q-137 -94 -121 -30Q-105 0 -69 -8 M89 -96Q137 -94 121 -30Q105 0 69 -8" fill="none" stroke="#edd7ae" stroke-width="8"/></g><g transform="translate(1006 711) rotate(0) scale(0.45)" opacity="0.78"><path d="M-88 -120Q-97 12 0 23Q97 12 88 -120Z" fill="url(#metal)" stroke="#fae3b1" stroke-width="8"/>
          <ellipse cx="0" cy="-120" rx="89" ry="20" fill="#a9dcdb" stroke="#f7e5b7" stroke-width="8"/>
          <path d="M0 23V106 M-52 108H52" stroke="#f4d9a0" stroke-width="20" stroke-linecap="round"/>
          <path d="M-89 -96Q-137 -94 -121 -30Q-105 0 -69 -8 M89 -96Q137 -94 121 -30Q105 0 69 -8" fill="none" stroke="#edd7ae" stroke-width="8"/></g><g transform="translate(600 1025) scale(0.88 0.88)"><path d="M115 260Q330 315 240 75Q225 25 194 60Q276 211 115 186" fill="none" stroke="#49636c" stroke-width="73" stroke-linecap="round"/>
        <path d="M117 258Q288 287 224 84" fill="none" stroke="#c6d5d3" stroke-width="36" stroke-linecap="round" opacity=".8"/>
        <ellipse cx="0" cy="226" rx="159" ry="205" fill="url(#fur)" stroke="#49636c" stroke-width="10"/>
        <ellipse cx="2" cy="252" rx="106" ry="133" fill="#c6d5d3" opacity=".7"/>
        <ellipse cx="-94" cy="393" rx="64" ry="43" fill="#c6d5d3" stroke="#49636c" stroke-width="9"/>
        <ellipse cx="92" cy="393" rx="64" ry="43" fill="#c6d5d3" stroke="#49636c" stroke-width="9"/>
        <path d="M-152 -153L-128 -318Q-75 -301 -53 -235 Q0 -265 53 -235Q75 -301 128 -318L152 -153Q195 5 0 24Q-195 5 -152 -153Z" fill="url(#fur)" stroke="#49636c" stroke-width="10" stroke-linejoin="round"/>
        <path d="M-121 -273Q-84 -269 -63 -225L-126 -191Z M121 -273Q84 -269 63 -225L126 -191Z" fill="#d99b98" opacity=".85"/>
        <path d="M-115 -166Q-65 -206 -9 -182 M115 -166Q65 -206 9 -182" fill="none" stroke="#49636c" stroke-width="13" opacity=".46"/>
        <path d="M-77 -66q31 -25 56 0 M21 -66q31 -25 56 0" fill="none" stroke="#373a42" stroke-width="10" stroke-linecap="round"/>
        <ellipse cx="-27" cy="-9" rx="49" ry="35" fill="#f6e5cf"/><ellipse cx="27" cy="-9" rx="49" ry="35" fill="#f6e5cf"/>
        <path d="M-18 -30Q0 -43 18 -30L0 -12Z" fill="#986e79"/>
        <path d="M0 -11v17m0 0q-21 17 -43 0m43 0q21 17 43 0" fill="none" stroke="#49636c" stroke-width="7" stroke-linecap="round"/>
        <path d="M-52 -14Q-140 -43 -180 -35 M-50 4Q-139 4 -179 24 M52 -14Q140 -43 180 -35 M50 4Q139 4 179 24" fill="none" stroke="#f2dec8" stroke-width="5" opacity=".8"/>
        <path d="M-140 103Q0 151 140 103" fill="none" stroke="#d7b77d" stroke-width="16"/>
        <circle cy="139" r="23" fill="#f5d186" stroke="#906b5a" stroke-width="5"/>
        <path d="M-95 141Q-135 171 -119 211 M95 141Q135 171 119 211" fill="none" stroke="#49636c" stroke-width="12" opacity=".3"/></g><g transform="translate(1006 989) rotate(0) scale(0.45)" opacity="0.78"><path d="M-88 -120Q-97 12 0 23Q97 12 88 -120Z" fill="url(#metal)" stroke="#fae3b1" stroke-width="8"/>
          <ellipse cx="0" cy="-120" rx="89" ry="20" fill="#a9dcdb" stroke="#f7e5b7" stroke-width="8"/>
          <path d="M0 23V106 M-52 108H52" stroke="#f4d9a0" stroke-width="20" stroke-linecap="round"/>
          <path d="M-89 -96Q-137 -94 -121 -30Q-105 0 -69 -8 M89 -96Q137 -94 121 -30Q105 0 69 -8" fill="none" stroke="#edd7ae" stroke-width="8"/></g><g transform="translate(858 1216) rotate(0) scale(0.45)" opacity="0.78"><path d="M-88 -120Q-97 12 0 23Q97 12 88 -120Z" fill="url(#metal)" stroke="#fae3b1" stroke-width="8"/>
          <ellipse cx="0" cy="-120" rx="89" ry="20" fill="#a9dcdb" stroke="#f7e5b7" stroke-width="8"/>
          <path d="M0 23V106 M-52 108H52" stroke="#f4d9a0" stroke-width="20" stroke-linecap="round"/>
          <path d="M-89 -96Q-137 -94 -121 -30Q-105 0 -69 -8 M89 -96Q137 -94 121 -30Q105 0 69 -8" fill="none" stroke="#edd7ae" stroke-width="8"/></g><g transform="translate(615 1310) rotate(0) scale(0.45)" opacity="0.78"><path d="M-88 -120Q-97 12 0 23Q97 12 88 -120Z" fill="url(#metal)" stroke="#fae3b1" stroke-width="8"/>
          <ellipse cx="0" cy="-120" rx="89" ry="20" fill="#a9dcdb" stroke="#f7e5b7" stroke-width="8"/>
          <path d="M0 23V106 M-52 108H52" stroke="#f4d9a0" stroke-width="20" stroke-linecap="round"/>
          <path d="M-89 -96Q-137 -94 -121 -30Q-105 0 -69 -8 M89 -96Q137 -94 121 -30Q105 0 69 -8" fill="none" stroke="#edd7ae" stroke-width="8"/></g><g transform="translate(367 1235) rotate(0) scale(0.45)" opacity="0.78"><path d="M-88 -120Q-97 12 0 23Q97 12 88 -120Z" fill="url(#metal)" stroke="#fae3b1" stroke-width="8"/>
          <ellipse cx="0" cy="-120" rx="89" ry="20" fill="#a9dcdb" stroke="#f7e5b7" stroke-width="8"/>
          <path d="M0 23V106 M-52 108H52" stroke="#f4d9a0" stroke-width="20" stroke-linecap="round"/>
          <path d="M-89 -96Q-137 -94 -121 -30Q-105 0 -69 -8 M89 -96Q137 -94 121 -30Q105 0 69 -8" fill="none" stroke="#edd7ae" stroke-width="8"/></g><g transform="translate(204 1019) rotate(0) scale(0.45)" opacity="0.78"><path d="M-88 -120Q-97 12 0 23Q97 12 88 -120Z" fill="url(#metal)" stroke="#fae3b1" stroke-width="8"/>
          <ellipse cx="0" cy="-120" rx="89" ry="20" fill="#a9dcdb" stroke="#f7e5b7" stroke-width="8"/>
          <path d="M0 23V106 M-52 108H52" stroke="#f4d9a0" stroke-width="20" stroke-linecap="round"/>
          <path d="M-89 -96Q-137 -94 -121 -30Q-105 0 -69 -8 M89 -96Q137 -94 121 -30Q105 0 69 -8" fill="none" stroke="#edd7ae" stroke-width="8"/></g><g transform="translate(260 1130) scale(-0.42 0.42)"><path d="M115 260Q330 315 240 75Q225 25 194 60Q276 211 115 186" fill="none" stroke="#49636c" stroke-width="73" stroke-linecap="round"/>
        <path d="M117 258Q288 287 224 84" fill="none" stroke="#c6d5d3" stroke-width="36" stroke-linecap="round" opacity=".8"/>
        <ellipse cx="0" cy="226" rx="159" ry="205" fill="url(#fur)" stroke="#49636c" stroke-width="10"/>
        <ellipse cx="2" cy="252" rx="106" ry="133" fill="#c6d5d3" opacity=".7"/>
        <ellipse cx="-94" cy="393" rx="64" ry="43" fill="#c6d5d3" stroke="#49636c" stroke-width="9"/>
        <ellipse cx="92" cy="393" rx="64" ry="43" fill="#c6d5d3" stroke="#49636c" stroke-width="9"/>
        <path d="M-152 -153L-128 -318Q-75 -301 -53 -235 Q0 -265 53 -235Q75 -301 128 -318L152 -153Q195 5 0 24Q-195 5 -152 -153Z" fill="url(#fur)" stroke="#49636c" stroke-width="10" stroke-linejoin="round"/>
        <path d="M-121 -273Q-84 -269 -63 -225L-126 -191Z M121 -273Q84 -269 63 -225L126 -191Z" fill="#d99b98" opacity=".85"/>
        <path d="M-115 -166Q-65 -206 -9 -182 M115 -166Q65 -206 9 -182" fill="none" stroke="#49636c" stroke-width="13" opacity=".46"/>
        <path d="M-77 -66q31 -25 56 0 M21 -66q31 -25 56 0" fill="none" stroke="#373a42" stroke-width="10" stroke-linecap="round"/>
        <ellipse cx="-27" cy="-9" rx="49" ry="35" fill="#f6e5cf"/><ellipse cx="27" cy="-9" rx="49" ry="35" fill="#f6e5cf"/>
        <path d="M-18 -30Q0 -43 18 -30L0 -12Z" fill="#986e79"/>
        <path d="M0 -11v17m0 0q-21 17 -43 0m43 0q21 17 43 0" fill="none" stroke="#49636c" stroke-width="7" stroke-linecap="round"/>
        <path d="M-52 -14Q-140 -43 -180 -35 M-50 4Q-139 4 -179 24 M52 -14Q140 -43 180 -35 M50 4Q139 4 179 24" fill="none" stroke="#f2dec8" stroke-width="5" opacity=".8"/>
        <path d="M-140 103Q0 151 140 103" fill="none" stroke="#d7b77d" stroke-width="16"/>
        <circle cy="139" r="23" fill="#f5d186" stroke="#906b5a" stroke-width="5"/>
        <path d="M-95 141Q-135 171 -119 211 M95 141Q135 171 119 211" fill="none" stroke="#49636c" stroke-width="12" opacity=".3"/></g><g transform="translate(940 1130) scale(0.42 0.42)"><path d="M115 260Q330 315 240 75Q225 25 194 60Q276 211 115 186" fill="none" stroke="#363850" stroke-width="73" stroke-linecap="round"/>
        <path d="M117 258Q288 287 224 84" fill="none" stroke="#9e8990" stroke-width="36" stroke-linecap="round" opacity=".8"/>
        <ellipse cx="0" cy="226" rx="159" ry="205" fill="url(#fur)" stroke="#363850" stroke-width="10"/>
        <ellipse cx="2" cy="252" rx="106" ry="133" fill="#9e8990" opacity=".7"/>
        <ellipse cx="-94" cy="393" rx="64" ry="43" fill="#9e8990" stroke="#363850" stroke-width="9"/>
        <ellipse cx="92" cy="393" rx="64" ry="43" fill="#9e8990" stroke="#363850" stroke-width="9"/>
        <path d="M-152 -153L-128 -318Q-75 -301 -53 -235 Q0 -265 53 -235Q75 -301 128 -318L152 -153Q195 5 0 24Q-195 5 -152 -153Z" fill="url(#fur)" stroke="#363850" stroke-width="10" stroke-linejoin="round"/>
        <path d="M-121 -273Q-84 -269 -63 -225L-126 -191Z M121 -273Q84 -269 63 -225L126 -191Z" fill="#d99b98" opacity=".85"/>
        <path d="M-115 -166Q-65 -206 -9 -182 M115 -166Q65 -206 9 -182" fill="none" stroke="#363850" stroke-width="13" opacity=".46"/>
        <path d="M-77 -66q31 -25 56 0 M21 -66q31 -25 56 0" fill="none" stroke="#373a42" stroke-width="10" stroke-linecap="round"/>
        <ellipse cx="-27" cy="-9" rx="49" ry="35" fill="#f6e5cf"/><ellipse cx="27" cy="-9" rx="49" ry="35" fill="#f6e5cf"/>
        <path d="M-18 -30Q0 -43 18 -30L0 -12Z" fill="#986e79"/>
        <path d="M0 -11v17m0 0q-21 17 -43 0m43 0q21 17 43 0" fill="none" stroke="#363850" stroke-width="7" stroke-linecap="round"/>
        <path d="M-52 -14Q-140 -43 -180 -35 M-50 4Q-139 4 -179 24 M52 -14Q140 -43 180 -35 M50 4Q139 4 179 24" fill="none" stroke="#f2dec8" stroke-width="5" opacity=".8"/>
        <path d="M-140 103Q0 151 140 103" fill="none" stroke="#d7b77d" stroke-width="16"/>
        <circle cy="139" r="23" fill="#f5d186" stroke="#906b5a" stroke-width="5"/>
        <path d="M-95 141Q-135 171 -119 211 M95 141Q135 171 119 211" fill="none" stroke="#363850" stroke-width="12" opacity=".3"/></g>
      
      <rect x="42" y="42" width="1116" height="1716" rx="24" fill="none" stroke="#d9b875" stroke-width="9" opacity=".86"/>
      <rect x="63" y="63" width="1074" height="1674" rx="16" fill="none" stroke="#f6e2ac" stroke-width="2" opacity=".58"/>
      <path d="M90 155V90h65 M1045 90h65v65 M90 1645v65h65 M1045 1710h65v-65" fill="none" stroke="#ffe5a9" stroke-width="9" opacity=".82"/>
      <circle cx="600" cy="85" r="8" fill="#9ddbcf"/><circle cx="600" cy="1715" r="8" fill="#9ddbcf"/>
    </svg>