<svg xmlns="http://www.w3.org/2000/svg" width="1200" height="1800" viewBox="0 0 1200 1800">
      <defs>
        <linearGradient id="sky" x2="0" y2="1"><stop stop-color="#102d2c"/><stop offset=".57" stop-color="#416657"/><stop offset="1" stop-color="#a1a46b"/></linearGradient>
        <linearGradient id="land" x2=".7" y2="1"><stop stop-color="#63754f"/><stop offset="1" stop-color="#19372e"/></linearGradient>
        <radialGradient id="halo"><stop stop-color="#dbdbaa" stop-opacity=".88"/><stop offset="1" stop-color="#dbdbaa" stop-opacity="0"/></radialGradient>
        <linearGradient id="fur" x2=".8" y2="1"><stop stop-color="#c6d5d3"/><stop offset=".68" stop-color="#748990"/><stop offset="1" stop-color="#49636c"/></linearGradient>
        <linearGradient id="metal" x2="1" y2="1"><stop stop-color="#fff0ba"/><stop offset=".46" stop-color="#ad8157"/><stop offset="1" stop-color="#f4d79b"/></linearGradient>
        <linearGradient id="blade" x2="1" y2="0"><stop stop-color="#fff5d5"/><stop offset=".48" stop-color="#9caec2"/><stop offset="1" stop-color="#ecf4ed"/></linearGradient>
      </defs>
      <rect width="1200" height="1800" fill="#0a1322"/>
      <rect x="24" y="24" width="1152" height="1752" rx="35" fill="url(#sky)"/>
      <g fill="#f6dfac"><circle cx="80" cy="583" r="3" opacity=".75"/><circle cx="166" cy="454" r="1" opacity=".55"/><circle cx="356" cy="697" r="2" opacity=".75"/><circle cx="931" cy="139" r="3" opacity=".4"/><circle cx="942" cy="545" r="4" opacity=".4"/><circle cx="839" cy="657" r="3" opacity=".4"/><circle cx="195" cy="465" r="3" opacity=".75"/><circle cx="609" cy="781" r="2" opacity=".28"/><circle cx="281" cy="849" r="2" opacity=".4"/><circle cx="480" cy="318" r="1" opacity=".55"/><circle cx="778" cy="751" r="3" opacity=".55"/><circle cx="177" cy="457" r="2" opacity=".28"/><circle cx="785" cy="231" r="2" opacity=".4"/><circle cx="961" cy="577" r="2" opacity=".28"/><circle cx="553" cy="718" r="1" opacity=".75"/><circle cx="112" cy="266" r="1" opacity=".28"/><circle cx="360" cy="681" r="4" opacity=".55"/><circle cx="214" cy="668" r="3" opacity=".55"/><circle cx="1121" cy="276" r="2" opacity=".28"/><circle cx="337" cy="379" r="2" opacity=".4"/><circle cx="872" cy="796" r="1" opacity=".55"/><circle cx="160" cy="545" r="3" opacity=".28"/><circle cx="145" cy="121" r="2" opacity=".55"/><circle cx="206" cy="143" r="3" opacity=".4"/><circle cx="1001" cy="389" r="1" opacity=".4"/><circle cx="1009" cy="107" r="4" opacity=".28"/><circle cx="994" cy="718" r="4" opacity=".28"/><circle cx="220" cy="274" r="1" opacity=".28"/><circle cx="223" cy="761" r="1" opacity=".75"/><circle cx="910" cy="639" r="2" opacity=".28"/><circle cx="461" cy="554" r="1" opacity=".28"/><circle cx="577" cy="800" r="2" opacity=".75"/><circle cx="625" cy="630" r="2" opacity=".55"/><circle cx="187" cy="115" r="2" opacity=".75"/><circle cx="717" cy="715" r="2" opacity=".4"/><circle cx="257" cy="597" r="2" opacity=".28"/><circle cx="1067" cy="476" r="1" opacity=".75"/><circle cx="1116" cy="391" r="3" opacity=".4"/><circle cx="90" cy="710" r="4" opacity=".4"/><circle cx="959" cy="724" r="2" opacity=".28"/><circle cx="350" cy="714" r="3" opacity=".55"/><circle cx="84" cy="703" r="2" opacity=".28"/><circle cx="852" cy="620" r="3" opacity=".75"/><circle cx="239" cy="470" r="4" opacity=".28"/><circle cx="464" cy="486" r="2" opacity=".55"/><circle cx="899" cy="322" r="3" opacity=".4"/><circle cx="1128" cy="547" r="2" opacity=".28"/><circle cx="492" cy="283" r="2" opacity=".28"/><circle cx="913" cy="438" r="4" opacity=".55"/><circle cx="386" cy="495" r="3" opacity=".55"/><circle cx="707" cy="814" r="4" opacity=".75"/><circle cx="971" cy="113" r="4" opacity=".55"/><circle cx="1039" cy="295" r="4" opacity=".75"/><circle cx="438" cy="258" r="3" opacity=".4"/><circle cx="875" cy="455" r="1" opacity=".75"/><circle cx="263" cy="324" r="4" opacity=".55"/><circle cx="199" cy="691" r="2" opacity=".4"/><circle cx="1065" cy="749" r="1" opacity=".55"/><circle cx="826" cy="531" r="2" opacity=".4"/><circle cx="521" cy="105" r="2" opacity=".75"/><circle cx="667" cy="173" r="3" opacity=".75"/><circle cx="1050" cy="666" r="2" opacity=".55"/><circle cx="1105" cy="495" r="2" opacity=".4"/><circle cx="247" cy="776" r="2" opacity=".75"/><circle cx="367" cy="319" r="3" opacity=".75"/><circle cx="599" cy="374" r="2" opacity=".4"/></g><circle cx="930" cy="310" r="125" fill="#dfc879" opacity=".62"/><circle cx="930" cy="310" r="165" fill="none" stroke="#e5d8a1" opacity=".4" stroke-width="2"/><path d="M194 658h22 M205 647v22" stroke="#f6d99e" stroke-width="2" opacity=".68"/><path d="M557 620h22 M568 609v22" stroke="#f6d99e" stroke-width="2" opacity=".68"/><path d="M681 617h22 M692 606v22" stroke="#f6d99e" stroke-width="2" opacity=".68"/><path d="M1009 571h22 M1020 560v22" stroke="#f6d99e" stroke-width="2" opacity=".68"/><path d="M350 325h22 M361 314v22" stroke="#f6d99e" stroke-width="2" opacity=".68"/><path d="M571 610h22 M582 599v22" stroke="#f6d99e" stroke-width="2" opacity=".68"/><path d="M380 382h22 M391 371v22" stroke="#f6d99e" stroke-width="2" opacity=".68"/><path d="M259 504h22 M270 493v22" stroke="#f6d99e" stroke-width="2" opacity=".68"/>
      <path d="M0 965 Q245 870 405 933 T802 919 T1200 971 V1800 H0Z" fill="url(#land)"/><path d="M0 1130 C210 1030 393 1110 583 1047 S950 1060 1200 994 V1800 H0Z" fill="#0b1b30" opacity=".46"/><path d="M0 1435 Q300 1275 600 1448 T1200 1370 V1800 H0Z" fill="#081827" opacity=".62"/><path d="M100 1600 C80 1240 180 1030 140 870" fill="none" stroke="#132d2e" stroke-width="55" opacity=".78"/><ellipse cx="10" cy="950" rx="108" ry="55" fill="#597d65" opacity=".34" transform="rotate(-22 10 950)"/><ellipse cx="150" cy="840" rx="108" ry="55" fill="#597d65" opacity=".34" transform="rotate(-22 150 840)"/><ellipse cx="220" cy="1010" rx="108" ry="55" fill="#597d65" opacity=".34" transform="rotate(-22 220 1010)"/><ellipse cx="55" cy="1120" rx="108" ry="55" fill="#597d65" opacity=".34" transform="rotate(-22 55 1120)"/><path d="M1080 1600 C1060 1240 1160 1030 1120 870" fill="none" stroke="#132d2e" stroke-width="55" opacity=".78"/><ellipse cx="990" cy="950" rx="108" ry="55" fill="#597d65" opacity=".34" transform="rotate(-22 990 950)"/><ellipse cx="1130" cy="840" rx="108" ry="55" fill="#597d65" opacity=".34" transform="rotate(-22 1130 840)"/><ellipse cx="1200" cy="1010" rx="108" ry="55" fill="#597d65" opacity=".34" transform="rotate(-22 1200 1010)"/><ellipse cx="1035" cy="1120" rx="108" ry="55" fill="#597d65" opacity=".34" transform="rotate(-22 1035 1120)"/>
      <path d="M200 1220Q600 640 1000 1220" fill="none" stroke="#f2dda8" stroke-width="35" opacity=".3"/><path d="M240 1220Q600 710 960 1220" fill="none" stroke="#fff0c0" stroke-width="5" opacity=".45"/>
      <g transform="translate(204 681) rotate(0) scale(0.55)" opacity="0.78"><circle r="108" fill="url(#metal)" stroke="#ffebb5" stroke-width="11"/>
          <circle r="88" fill="none" stroke="#786744" stroke-width="5" opacity=".6"/>
          <polygon points="0.0,-72.0 42.3,58.2 -68.5,-22.2 68.5,-22.2 -42.3,58.2" fill="none" stroke="#fff2c0" stroke-width="11" stroke-linejoin="round"/></g><g transform="translate(563 392) rotate(0) scale(0.55)" opacity="0.78"><circle r="108" fill="url(#metal)" stroke="#ffebb5" stroke-width="11"/>
          <circle r="88" fill="none" stroke="#786744" stroke-width="5" opacity=".6"/>
          <polygon points="0.0,-72.0 42.3,58.2 -68.5,-22.2 68.5,-22.2 -42.3,58.2" fill="none" stroke="#fff2c0" stroke-width="11" stroke-linejoin="round"/></g><g transform="translate(963 608) rotate(0) scale(0.55)" opacity="0.78"><circle r="108" fill="url(#metal)" stroke="#ffebb5" stroke-width="11"/>
          <circle r="88" fill="none" stroke="#786744" stroke-width="5" opacity=".6"/>
          <polygon points="0.0,-72.0 42.3,58.2 -68.5,-22.2 68.5,-22.2 -42.3,58.2" fill="none" stroke="#fff2c0" stroke-width="11" stroke-linejoin="round"/></g><g transform="translate(450 1025) scale(0.88 0.88)"><path d="M115 260Q330 315 240 75Q225 25 194 60Q276 211 115 186" fill="none" stroke="#49636c" stroke-width="73" stroke-linecap="round"/>
        <path d="M117 258Q288 287 224 84" fill="none" stroke="#c6d5d3" stroke-width="36" stroke-linecap="round" opacity=".8"/>
        <ellipse cx="0" cy="226" rx="159" ry="205" fill="url(#fur)" stroke="#49636c" stroke-width="10"/>
        <ellipse cx="2" cy="252" rx="106" ry="133" fill="#c6d5d3" opacity=".7"/>
        <ellipse cx="-94" cy="393" rx="64" ry="43" fill="#c6d5d3" stroke="#49636c" stroke-width="9"/>
        <ellipse cx="92" cy="393" rx="64" ry="43" fill="#c6d5d3" stroke="#49636c" stroke-width="9"/>
        <path d="M-152 -153L-128 -318Q-75 -301 -53 -235 Q0 -265 53 -235Q75 -301 128 -318L152 -153Q195 5 0 24Q-195 5 -152 -153Z" fill="url(#fur)" stroke="#49636c" stroke-width="10" stroke-linejoin="round"/>
        <path d="M-121 -273Q-84 -269 -63 -225L-126 -191Z M121 -273Q84 -269 63 -225L126 -191Z" fill="#d99b98" opacity=".85"/>
        <path d="M-115 -166Q-65 -206 -9 -182 M115 -166Q65 -206 9 -182" fill="none" stroke="#49636c" stroke-width="13" opacity=".46"/>
        <path d="M-77 -66q31 -25 56 0 M21 -66q31 -25 56 0" fill="none" stroke="#373a42" stroke-width="10" stroke-linecap="round"/>
        <ellipse cx="-27" cy="-9" rx="49" ry="35" fill="#f6e5cf"/><ellipse cx="27" cy="-9" rx="49" ry="35" fill="#f6e5cf"/>
        <path d="M-18 -30Q0 -43 18 -30L0 -12Z" fill="#986e79"/>
        <path d="M0 -11v17m0 0q-21 17 -43 0m43 0q21 17 43 0" fill="none" stroke="#49636c" stroke-width="7" stroke-linecap="round"/>
        <path d="M-52 -14Q-140 -43 -180 -35 M-50 4Q-139 4 -179 24 M52 -14Q140 -43 180 -35 M50 4Q139 4 179 24" fill="none" stroke="#f2dec8" stroke-width="5" opacity=".8"/>
        <path d="M-140 103Q0 151 140 103" fill="none" stroke="#d7b77d" stroke-width="16"/>
        <circle cy="139" r="23" fill="#f5d186" stroke="#906b5a" stroke-width="5"/>
        <path d="M-95 141Q-135 171 -119 211 M95 141Q135 171 119 211" fill="none" stroke="#49636c" stroke-width="12" opacity=".3"/></g><g transform="translate(963 1092) rotate(0) scale(0.55)" opacity="0.78"><circle r="108" fill="url(#metal)" stroke="#ffebb5" stroke-width="11"/>
          <circle r="88" fill="none" stroke="#786744" stroke-width="5" opacity=".6"/>
          <polygon points="0.0,-72.0 42.3,58.2 -68.5,-22.2 68.5,-22.2 -42.3,58.2" fill="none" stroke="#fff2c0" stroke-width="11" stroke-linejoin="round"/></g><g transform="translate(563 1308) rotate(0) scale(0.55)" opacity="0.78"><circle r="108" fill="url(#metal)" stroke="#ffebb5" stroke-width="11"/>
          <circle r="88" fill="none" stroke="#786744" stroke-width="5" opacity=".6"/>
          <polygon points="0.0,-72.0 42.3,58.2 -68.5,-22.2 68.5,-22.2 -42.3,58.2" fill="none" stroke="#fff2c0" stroke-width="11" stroke-linejoin="round"/></g><g transform="translate(204 1019) rotate(0) scale(0.55)" opacity="0.78"><circle r="108" fill="url(#metal)" stroke="#ffebb5" stroke-width="11"/>
          <circle r="88" fill="none" stroke="#786744" stroke-width="5" opacity=".6"/>
          <polygon points="0.0,-72.0 42.3,58.2 -68.5,-22.2 68.5,-22.2 -42.3,58.2" fill="none" stroke="#fff2c0" stroke-width="11" stroke-linejoin="round"/></g><g transform="translate(860 1120) scale(-0.52 0.52)"><path d="M115 260Q330 315 240 75Q225 25 194 60Q276 211 115 186" fill="none" stroke="#71575c" stroke-width="73" stroke-linecap="round"/>
        <path d="M117 258Q288 287 224 84" fill="none" stroke="#edca9a" stroke-width="36" stroke-linecap="round" opacity=".8"/>
        <ellipse cx="0" cy="226" rx="159" ry="205" fill="url(#fur)" stroke="#71575c" stroke-width="10"/>
        <ellipse cx="2" cy="252" rx="106" ry="133" fill="#edca9a" opacity=".7"/>
        <ellipse cx="-94" cy="393" rx="64" ry="43" fill="#edca9a" stroke="#71575c" stroke-width="9"/>
        <ellipse cx="92" cy="393" rx="64" ry="43" fill="#edca9a" stroke="#71575c" stroke-width="9"/>
        <path d="M-152 -153L-128 -318Q-75 -301 -53 -235 Q0 -265 53 -235Q75 -301 128 -318L152 -153Q195 5 0 24Q-195 5 -152 -153Z" fill="url(#fur)" stroke="#71575c" stroke-width="10" stroke-linejoin="round"/>
        <path d="M-121 -273Q-84 -269 -63 -225L-126 -191Z M121 -273Q84 -269 63 -225L126 -191Z" fill="#d99b98" opacity=".85"/>
        <path d="M-115 -166Q-65 -206 -9 -182 M115 -166Q65 -206 9 -182" fill="none" stroke="#71575c" stroke-width="13" opacity=".46"/>
        <path d="M-77 -66q31 -25 56 0 M21 -66q31 -25 56 0" fill="none" stroke="#373a42" stroke-width="10" stroke-linecap="round"/>
        <ellipse cx="-27" cy="-9" rx="49" ry="35" fill="#f6e5cf"/><ellipse cx="27" cy="-9" rx="49" ry="35" fill="#f6e5cf"/>
        <path d="M-18 -30Q0 -43 18 -30L0 -12Z" fill="#986e79"/>
        <path d="M0 -11v17m0 0q-21 17 -43 0m43 0q21 17 43 0" fill="none" stroke="#71575c" stroke-width="7" stroke-linecap="round"/>
        <path d="M-52 -14Q-140 -43 -180 -35 M-50 4Q-139 4 -179 24 M52 -14Q140 -43 180 -35 M50 4Q139 4 179 24" fill="none" stroke="#f2dec8" stroke-width="5" opacity=".8"/>
        <path d="M-140 103Q0 151 140 103" fill="none" stroke="#d7b77d" stroke-width="16"/>
        <circle cy="139" r="23" fill="#f5d186" stroke="#906b5a" stroke-width="5"/>
        <path d="M-95 141Q-135 171 -119 211 M95 141Q135 171 119 211" fill="none" stroke="#71575c" stroke-width="12" opacity=".3"/></g>
      
      <rect x="42" y="42" width="1116" height="1716" rx="24" fill="none" stroke="#d9b875" stroke-width="9" opacity=".86"/>
      <rect x="63" y="63" width="1074" height="1674" rx="16" fill="none" stroke="#f6e2ac" stroke-width="2" opacity=".58"/>
      <path d="M90 155V90h65 M1045 90h65v65 M90 1645v65h65 M1045 1710h65v-65" fill="none" stroke="#ffe5a9" stroke-width="9" opacity=".82"/>
      <circle cx="600" cy="85" r="8" fill="#e6c46d"/><circle cx="600" cy="1715" r="8" fill="#e6c46d"/>
    </svg>