<svg xmlns="http://www.w3.org/2000/svg" width="1200" height="1800" viewBox="0 0 1200 1800">
      <defs>
        <linearGradient id="sky" x2="0" y2="1"><stop stop-color="#0a1934"/><stop offset=".57" stop-color="#36516b"/><stop offset="1" stop-color="#a3a4a1"/></linearGradient>
        <linearGradient id="land" x2=".7" y2="1"><stop stop-color="#587187"/><stop offset="1" stop-color="#172b47"/></linearGradient>
        <radialGradient id="halo"><stop stop-color="#e7bd86" stop-opacity=".88"/><stop offset="1" stop-color="#e7bd86" stop-opacity="0"/></radialGradient>
        <linearGradient id="fur" x2=".8" y2="1"><stop stop-color="#edca9a"/><stop offset=".68" stop-color="#ae8d72"/><stop offset="1" stop-color="#71575c"/></linearGradient>
        <linearGradient id="metal" x2="1" y2="1"><stop stop-color="#fff0ba"/><stop offset=".46" stop-color="#ad8157"/><stop offset="1" stop-color="#f4d79b"/></linearGradient>
        <linearGradient id="blade" x2="1" y2="0"><stop stop-color="#fff5d5"/><stop offset=".48" stop-color="#9caec2"/><stop offset="1" stop-color="#ecf4ed"/></linearGradient>
      </defs>
      <rect width="1200" height="1800" fill="#0a1322"/>
      <rect x="24" y="24" width="1152" height="1752" rx="35" fill="url(#sky)"/>
      <g fill="#f6dfac"><circle cx="614" cy="723" r="1" opacity=".28"/><circle cx="127" cy="485" r="2" opacity=".4"/><circle cx="537" cy="530" r="4" opacity=".75"/><circle cx="413" cy="643" r="4" opacity=".4"/><circle cx="1119" cy="128" r="1" opacity=".4"/><circle cx="640" cy="439" r="2" opacity=".4"/><circle cx="918" cy="300" r="3" opacity=".4"/><circle cx="856" cy="255" r="2" opacity=".75"/><circle cx="1126" cy="364" r="4" opacity=".28"/><circle cx="903" cy="613" r="2" opacity=".75"/><circle cx="240" cy="413" r="2" opacity=".55"/><circle cx="400" cy="458" r="2" opacity=".75"/><circle cx="855" cy="640" r="1" opacity=".75"/><circle cx="102" cy="801" r="2" opacity=".55"/><circle cx="585" cy="444" r="3" opacity=".28"/><circle cx="874" cy="276" r="3" opacity=".55"/><circle cx="897" cy="542" r="2" opacity=".4"/><circle cx="764" cy="314" r="3" opacity=".75"/><circle cx="426" cy="294" r="2" opacity=".75"/><circle cx="1034" cy="584" r="1" opacity=".75"/><circle cx="150" cy="770" r="3" opacity=".55"/><circle cx="647" cy="474" r="3" opacity=".55"/><circle cx="421" cy="335" r="1" opacity=".4"/><circle cx="635" cy="384" r="2" opacity=".75"/><circle cx="515" cy="348" r="4" opacity=".55"/><circle cx="808" cy="648" r="3" opacity=".75"/><circle cx="961" cy="731" r="3" opacity=".28"/><circle cx="1001" cy="810" r="2" opacity=".55"/><circle cx="1001" cy="479" r="3" opacity=".55"/><circle cx="1089" cy="459" r="4" opacity=".75"/><circle cx="527" cy="309" r="2" opacity=".4"/><circle cx="744" cy="265" r="1" opacity=".75"/><circle cx="545" cy="287" r="3" opacity=".75"/><circle cx="135" cy="201" r="4" opacity=".4"/><circle cx="248" cy="828" r="4" opacity=".4"/><circle cx="645" cy="95" r="4" opacity=".4"/><circle cx="448" cy="208" r="1" opacity=".28"/><circle cx="1061" cy="768" r="2" opacity=".55"/><circle cx="384" cy="547" r="2" opacity=".28"/><circle cx="181" cy="438" r="1" opacity=".28"/><circle cx="470" cy="644" r="2" opacity=".75"/><circle cx="116" cy="789" r="4" opacity=".55"/><circle cx="506" cy="121" r="3" opacity=".28"/><circle cx="1010" cy="619" r="3" opacity=".28"/><circle cx="487" cy="393" r="3" opacity=".4"/><circle cx="453" cy="443" r="3" opacity=".28"/><circle cx="892" cy="758" r="4" opacity=".4"/><circle cx="374" cy="538" r="3" opacity=".28"/><circle cx="1100" cy="133" r="4" opacity=".4"/><circle cx="162" cy="805" r="1" opacity=".28"/><circle cx="225" cy="802" r="2" opacity=".75"/><circle cx="794" cy="432" r="2" opacity=".28"/><circle cx="634" cy="206" r="3" opacity=".28"/><circle cx="958" cy="297" r="2" opacity=".28"/><circle cx="977" cy="741" r="4" opacity=".4"/><circle cx="537" cy="477" r="4" opacity=".28"/><circle cx="850" cy="238" r="4" opacity=".55"/><circle cx="790" cy="370" r="2" opacity=".75"/><circle cx="223" cy="745" r="2" opacity=".28"/><circle cx="312" cy="814" r="2" opacity=".28"/><circle cx="448" cy="687" r="2" opacity=".28"/><circle cx="380" cy="643" r="2" opacity=".28"/><circle cx="175" cy="151" r="2" opacity=".75"/><circle cx="531" cy="287" r="1" opacity=".28"/><circle cx="136" cy="785" r="3" opacity=".28"/><circle cx="996" cy="298" r="2" opacity=".28"/></g><circle cx="905" cy="300" r="156" fill="url(#halo)" opacity=".46"/><path d="M0 365 C330 265 670 430 1200 335" fill="none" stroke="#d9e5e5" stroke-width="5" opacity=".16"/><path d="M0 410 C330 310 670 475 1200 380" fill="none" stroke="#d9e5e5" stroke-width="5" opacity=".16"/><path d="M0 462 C330 362 670 527 1200 432" fill="none" stroke="#d9e5e5" stroke-width="5" opacity=".16"/><path d="M627 710h22 M638 699v22" stroke="#f6d99e" stroke-width="2" opacity=".68"/><path d="M746 503h22 M757 492v22" stroke="#f6d99e" stroke-width="2" opacity=".68"/><path d="M984 664h22 M995 653v22" stroke="#f6d99e" stroke-width="2" opacity=".68"/><path d="M1068 548h22 M1079 537v22" stroke="#f6d99e" stroke-width="2" opacity=".68"/><path d="M187 412h22 M198 401v22" stroke="#f6d99e" stroke-width="2" opacity=".68"/><path d="M941 630h22 M952 619v22" stroke="#f6d99e" stroke-width="2" opacity=".68"/><path d="M174 458h22 M185 447v22" stroke="#f6d99e" stroke-width="2" opacity=".68"/><path d="M876 358h22 M887 347v22" stroke="#f6d99e" stroke-width="2" opacity=".68"/>
      <path d="M0 965 Q245 870 405 933 T802 919 T1200 971 V1800 H0Z" fill="url(#land)"/><path d="M0 1130 C210 1030 393 1110 583 1047 S950 1060 1200 994 V1800 H0Z" fill="#0b1b30" opacity=".46"/><path d="M0 1435 Q300 1275 600 1448 T1200 1370 V1800 H0Z" fill="#081827" opacity=".62"/><path d="M0 970 L230 730 363 960 600 660 826 990 1050 765 1200 940" fill="#8b9dab" opacity=".18"/><path d="M0 990 L230 730 363 960 600 660 826 990 1050 765 1200 940" fill="none" stroke="#e3e6d9" opacity=".22" stroke-width="4"/>
      <path d="M210 1260V805Q600 520 990 805V1260" fill="none" stroke="#e9c68e" stroke-width="23" opacity=".4"/><path d="M225 1280H975" stroke="#f5dca9" stroke-width="18" opacity=".4"/><path d="M300 755L400 620 510 700 600 535 690 700 800 620 900 755Z" fill="#e8bc73" opacity=".32"/>
      <g transform="translate(840 530) rotate(0) scale(0.92)" opacity="0.78"><path d="M0 -232L31 -175L20 56H-20L-31 -175Z" fill="url(#blade)" stroke="#f2e4c4" stroke-width="6"/>
          <path d="M-90 59Q0 86 90 59" fill="none" stroke="#d5b67e" stroke-width="24" stroke-linecap="round"/>
          <path d="M0 72V145" stroke="#bb916e" stroke-width="24"/><circle cx="0" cy="150" r="20" fill="#f1d9a0"/></g><g transform="translate(600 1025) scale(0.98 0.98)"><path d="M115 260Q330 315 240 75Q225 25 194 60Q276 211 115 186" fill="none" stroke="#71575c" stroke-width="73" stroke-linecap="round"/>
        <path d="M117 258Q288 287 224 84" fill="none" stroke="#edca9a" stroke-width="36" stroke-linecap="round" opacity=".8"/>
        <ellipse cx="0" cy="226" rx="159" ry="205" fill="url(#fur)" stroke="#71575c" stroke-width="10"/>
        <ellipse cx="2" cy="252" rx="106" ry="133" fill="#edca9a" opacity=".7"/>
        <ellipse cx="-94" cy="393" rx="64" ry="43" fill="#edca9a" stroke="#71575c" stroke-width="9"/>
        <ellipse cx="92" cy="393" rx="64" ry="43" fill="#edca9a" stroke="#71575c" stroke-width="9"/>
        <path d="M-152 -153L-128 -318Q-75 -301 -53 -235 Q0 -265 53 -235Q75 -301 128 -318L152 -153Q195 5 0 24Q-195 5 -152 -153Z" fill="url(#fur)" stroke="#71575c" stroke-width="10" stroke-linejoin="round"/>
        <path d="M-121 -273Q-84 -269 -63 -225L-126 -191Z M121 -273Q84 -269 63 -225L126 -191Z" fill="#d99b98" opacity=".85"/>
        <path d="M-115 -166Q-65 -206 -9 -182 M115 -166Q65 -206 9 -182" fill="none" stroke="#71575c" stroke-width="13" opacity=".46"/>
        <ellipse cx="-46" cy="-66" rx="20" ry="28" fill="#e9c273"/><ellipse cx="46" cy="-66" rx="20" ry="28" fill="#e9c273"/><path d="M-46 -86v43 M46 -86v43" stroke="#1e2934" stroke-width="10" stroke-linecap="round"/><circle cx="-53" cy="-76" r="6" fill="#fff4d4"/><circle cx="39" cy="-76" r="6" fill="#fff4d4"/>
        <ellipse cx="-27" cy="-9" rx="49" ry="35" fill="#f6e5cf"/><ellipse cx="27" cy="-9" rx="49" ry="35" fill="#f6e5cf"/>
        <path d="M-18 -30Q0 -43 18 -30L0 -12Z" fill="#986e79"/>
        <path d="M0 -11v17m0 0q-21 17 -43 0m43 0q21 17 43 0" fill="none" stroke="#71575c" stroke-width="7" stroke-linecap="round"/>
        <path d="M-52 -14Q-140 -43 -180 -35 M-50 4Q-139 4 -179 24 M52 -14Q140 -43 180 -35 M50 4Q139 4 179 24" fill="none" stroke="#f2dec8" stroke-width="5" opacity=".8"/>
        <path d="M-140 103Q0 151 140 103" fill="none" stroke="#d7b77d" stroke-width="16"/>
        <circle cy="139" r="23" fill="#f5d186" stroke="#906b5a" stroke-width="5"/>
        <path d="M-95 141Q-135 171 -119 211 M95 141Q135 171 119 211" fill="none" stroke="#71575c" stroke-width="12" opacity=".3"/><path d="M-98 -273L-112 -348 -53 -305 0 -390 53 -305 112 -348 98 -273Z" fill="url(#metal)" stroke="#ffe2a8" stroke-width="9"/><circle cy="-318" r="12" fill="#f2d39c"/></g>
      
      <rect x="42" y="42" width="1116" height="1716" rx="24" fill="none" stroke="#d9b875" stroke-width="9" opacity=".86"/>
      <rect x="63" y="63" width="1074" height="1674" rx="16" fill="none" stroke="#f6e2ac" stroke-width="2" opacity=".58"/>
      <path d="M90 155V90h65 M1045 90h65v65 M90 1645v65h65 M1045 1710h65v-65" fill="none" stroke="#ffe5a9" stroke-width="9" opacity=".82"/>
      <circle cx="600" cy="85" r="8" fill="#d2e0e8"/><circle cx="600" cy="1715" r="8" fill="#d2e0e8"/>
    </svg>