<svg xmlns="http://www.w3.org/2000/svg" width="1200" height="1800" viewBox="0 0 1200 1800">
      <defs>
        <linearGradient id="sky" x2="0" y2="1"><stop stop-color="#0a1934"/><stop offset=".57" stop-color="#36516b"/><stop offset="1" stop-color="#a3a4a1"/></linearGradient>
        <linearGradient id="land" x2=".7" y2="1"><stop stop-color="#587187"/><stop offset="1" stop-color="#172b47"/></linearGradient>
        <radialGradient id="halo"><stop stop-color="#e7bd86" stop-opacity=".88"/><stop offset="1" stop-color="#e7bd86" stop-opacity="0"/></radialGradient>
        <linearGradient id="fur" x2=".8" y2="1"><stop stop-color="#c6d5d3"/><stop offset=".68" stop-color="#748990"/><stop offset="1" stop-color="#49636c"/></linearGradient>
        <linearGradient id="metal" x2="1" y2="1"><stop stop-color="#fff0ba"/><stop offset=".46" stop-color="#ad8157"/><stop offset="1" stop-color="#f4d79b"/></linearGradient>
        <linearGradient id="blade" x2="1" y2="0"><stop stop-color="#fff5d5"/><stop offset=".48" stop-color="#9caec2"/><stop offset="1" stop-color="#ecf4ed"/></linearGradient>
      </defs>
      <rect width="1200" height="1800" fill="#0a1322"/>
      <rect x="24" y="24" width="1152" height="1752" rx="35" fill="url(#sky)"/>
      <g fill="#f6dfac"><circle cx="156" cy="307" r="2" opacity=".4"/><circle cx="281" cy="480" r="1" opacity=".28"/><circle cx="1044" cy="814" r="2" opacity=".55"/><circle cx="774" cy="607" r="2" opacity=".55"/><circle cx="217" cy="167" r="3" opacity=".4"/><circle cx="329" cy="436" r="2" opacity=".4"/><circle cx="394" cy="713" r="2" opacity=".55"/><circle cx="257" cy="299" r="3" opacity=".75"/><circle cx="307" cy="181" r="2" opacity=".55"/><circle cx="936" cy="619" r="2" opacity=".55"/><circle cx="354" cy="169" r="3" opacity=".55"/><circle cx="948" cy="488" r="3" opacity=".75"/><circle cx="492" cy="701" r="1" opacity=".4"/><circle cx="806" cy="213" r="2" opacity=".4"/><circle cx="545" cy="452" r="2" opacity=".75"/><circle cx="237" cy="263" r="3" opacity=".4"/><circle cx="373" cy="839" r="1" opacity=".55"/><circle cx="405" cy="798" r="2" opacity=".4"/><circle cx="557" cy="453" r="3" opacity=".4"/><circle cx="514" cy="566" r="1" opacity=".4"/><circle cx="863" cy="823" r="1" opacity=".55"/><circle cx="704" cy="222" r="2" opacity=".75"/><circle cx="416" cy="847" r="2" opacity=".55"/><circle cx="262" cy="226" r="2" opacity=".28"/><circle cx="667" cy="642" r="2" opacity=".28"/><circle cx="623" cy="447" r="3" opacity=".28"/><circle cx="590" cy="747" r="3" opacity=".28"/><circle cx="665" cy="144" r="4" opacity=".28"/><circle cx="171" cy="826" r="3" opacity=".75"/><circle cx="454" cy="209" r="3" opacity=".75"/><circle cx="1008" cy="369" r="3" opacity=".28"/><circle cx="201" cy="534" r="2" opacity=".28"/><circle cx="1000" cy="757" r="2" opacity=".28"/><circle cx="788" cy="455" r="3" opacity=".28"/><circle cx="626" cy="352" r="2" opacity=".75"/><circle cx="1081" cy="848" r="3" opacity=".4"/><circle cx="847" cy="463" r="4" opacity=".55"/><circle cx="658" cy="703" r="3" opacity=".4"/><circle cx="244" cy="799" r="4" opacity=".75"/><circle cx="359" cy="647" r="2" opacity=".28"/><circle cx="424" cy="209" r="2" opacity=".75"/><circle cx="826" cy="597" r="3" opacity=".28"/><circle cx="391" cy="613" r="4" opacity=".75"/><circle cx="949" cy="348" r="3" opacity=".28"/><circle cx="209" cy="585" r="4" opacity=".4"/><circle cx="246" cy="187" r="2" opacity=".75"/><circle cx="193" cy="591" r="2" opacity=".4"/><circle cx="724" cy="194" r="1" opacity=".75"/><circle cx="914" cy="611" r="2" opacity=".55"/><circle cx="1033" cy="304" r="2" opacity=".28"/><circle cx="831" cy="339" r="2" opacity=".4"/><circle cx="607" cy="270" r="2" opacity=".4"/><circle cx="341" cy="257" r="2" opacity=".75"/><circle cx="764" cy="362" r="2" opacity=".4"/><circle cx="686" cy="722" r="3" opacity=".55"/><circle cx="712" cy="158" r="4" opacity=".4"/><circle cx="484" cy="828" r="1" opacity=".55"/><circle cx="860" cy="779" r="3" opacity=".55"/><circle cx="256" cy="153" r="2" opacity=".75"/><circle cx="544" cy="275" r="2" opacity=".4"/><circle cx="155" cy="110" r="4" opacity=".4"/><circle cx="161" cy="459" r="4" opacity=".28"/><circle cx="159" cy="677" r="4" opacity=".55"/><circle cx="799" cy="795" r="3" opacity=".75"/><circle cx="421" cy="794" r="4" opacity=".4"/><circle cx="658" cy="225" r="4" opacity=".75"/></g><circle cx="905" cy="300" r="156" fill="url(#halo)" opacity=".46"/><path d="M0 365 C330 265 670 430 1200 335" fill="none" stroke="#d9e5e5" stroke-width="5" opacity=".16"/><path d="M0 410 C330 310 670 475 1200 380" fill="none" stroke="#d9e5e5" stroke-width="5" opacity=".16"/><path d="M0 462 C330 362 670 527 1200 432" fill="none" stroke="#d9e5e5" stroke-width="5" opacity=".16"/><path d="M392 264h22 M403 253v22" stroke="#f6d99e" stroke-width="2" opacity=".68"/><path d="M147 256h22 M158 245v22" stroke="#f6d99e" stroke-width="2" opacity=".68"/><path d="M311 256h22 M322 245v22" stroke="#f6d99e" stroke-width="2" opacity=".68"/><path d="M218 386h22 M229 375v22" stroke="#f6d99e" stroke-width="2" opacity=".68"/><path d="M819 595h22 M830 584v22" stroke="#f6d99e" stroke-width="2" opacity=".68"/><path d="M182 502h22 M193 491v22" stroke="#f6d99e" stroke-width="2" opacity=".68"/><path d="M590 324h22 M601 313v22" stroke="#f6d99e" stroke-width="2" opacity=".68"/><path d="M873 342h22 M884 331v22" stroke="#f6d99e" stroke-width="2" opacity=".68"/>
      <path d="M0 965 Q245 870 405 933 T802 919 T1200 971 V1800 H0Z" fill="url(#land)"/><path d="M0 1130 C210 1030 393 1110 583 1047 S950 1060 1200 994 V1800 H0Z" fill="#0b1b30" opacity=".46"/><path d="M0 1435 Q300 1275 600 1448 T1200 1370 V1800 H0Z" fill="#081827" opacity=".62"/><path d="M0 970 L230 730 363 960 600 660 826 990 1050 765 1200 940" fill="#8b9dab" opacity=".18"/><path d="M0 990 L230 730 363 960 600 660 826 990 1050 765 1200 940" fill="none" stroke="#e3e6d9" opacity=".22" stroke-width="4"/>
      <path d="M210 1260V805Q600 520 990 805V1260" fill="none" stroke="#e9c68e" stroke-width="23" opacity=".4"/><path d="M225 1280H975" stroke="#f5dca9" stroke-width="18" opacity=".4"/><path d="M310 810Q600 370 890 810" fill="none" stroke="#eae1b3" stroke-width="7" opacity=".5"/>
      <g transform="translate(840 530) rotate(0) scale(0.92)" opacity="0.78"><path d="M0 -232L31 -175L20 56H-20L-31 -175Z" fill="url(#blade)" stroke="#f2e4c4" stroke-width="6"/>
          <path d="M-90 59Q0 86 90 59" fill="none" stroke="#d5b67e" stroke-width="24" stroke-linecap="round"/>
          <path d="M0 72V145" stroke="#bb916e" stroke-width="24"/><circle cx="0" cy="150" r="20" fill="#f1d9a0"/></g><g transform="translate(600 1025) scale(0.98 0.98)"><path d="M115 260Q330 315 240 75Q225 25 194 60Q276 211 115 186" fill="none" stroke="#49636c" stroke-width="73" stroke-linecap="round"/>
        <path d="M117 258Q288 287 224 84" fill="none" stroke="#c6d5d3" stroke-width="36" stroke-linecap="round" opacity=".8"/>
        <ellipse cx="0" cy="226" rx="159" ry="205" fill="url(#fur)" stroke="#49636c" stroke-width="10"/>
        <ellipse cx="2" cy="252" rx="106" ry="133" fill="#c6d5d3" opacity=".7"/>
        <ellipse cx="-94" cy="393" rx="64" ry="43" fill="#c6d5d3" stroke="#49636c" stroke-width="9"/>
        <ellipse cx="92" cy="393" rx="64" ry="43" fill="#c6d5d3" stroke="#49636c" stroke-width="9"/>
        <path d="M-152 -153L-128 -318Q-75 -301 -53 -235 Q0 -265 53 -235Q75 -301 128 -318L152 -153Q195 5 0 24Q-195 5 -152 -153Z" fill="url(#fur)" stroke="#49636c" stroke-width="10" stroke-linejoin="round"/>
        <path d="M-121 -273Q-84 -269 -63 -225L-126 -191Z M121 -273Q84 -269 63 -225L126 -191Z" fill="#d99b98" opacity=".85"/>
        <path d="M-115 -166Q-65 -206 -9 -182 M115 -166Q65 -206 9 -182" fill="none" stroke="#49636c" stroke-width="13" opacity=".46"/>
        <ellipse cx="-46" cy="-66" rx="20" ry="28" fill="#e9c273"/><ellipse cx="46" cy="-66" rx="20" ry="28" fill="#e9c273"/><path d="M-46 -86v43 M46 -86v43" stroke="#1e2934" stroke-width="10" stroke-linecap="round"/><circle cx="-53" cy="-76" r="6" fill="#fff4d4"/><circle cx="39" cy="-76" r="6" fill="#fff4d4"/>
        <ellipse cx="-27" cy="-9" rx="49" ry="35" fill="#f6e5cf"/><ellipse cx="27" cy="-9" rx="49" ry="35" fill="#f6e5cf"/>
        <path d="M-18 -30Q0 -43 18 -30L0 -12Z" fill="#986e79"/>
        <path d="M0 -11v17m0 0q-21 17 -43 0m43 0q21 17 43 0" fill="none" stroke="#49636c" stroke-width="7" stroke-linecap="round"/>
        <path d="M-52 -14Q-140 -43 -180 -35 M-50 4Q-139 4 -179 24 M52 -14Q140 -43 180 -35 M50 4Q139 4 179 24" fill="none" stroke="#f2dec8" stroke-width="5" opacity=".8"/>
        <path d="M-140 103Q0 151 140 103" fill="none" stroke="#d7b77d" stroke-width="16"/>
        <circle cy="139" r="23" fill="#f5d186" stroke="#906b5a" stroke-width="5"/>
        <path d="M-95 141Q-135 171 -119 211 M95 141Q135 171 119 211" fill="none" stroke="#49636c" stroke-width="12" opacity=".3"/><path d="M-98 -273L-112 -348 -53 -305 0 -390 53 -305 112 -348 98 -273Z" fill="url(#metal)" stroke="#ffe2a8" stroke-width="9"/><circle cy="-318" r="12" fill="#f2d39c"/></g>
      
      <rect x="42" y="42" width="1116" height="1716" rx="24" fill="none" stroke="#d9b875" stroke-width="9" opacity=".86"/>
      <rect x="63" y="63" width="1074" height="1674" rx="16" fill="none" stroke="#f6e2ac" stroke-width="2" opacity=".58"/>
      <path d="M90 155V90h65 M1045 90h65v65 M90 1645v65h65 M1045 1710h65v-65" fill="none" stroke="#ffe5a9" stroke-width="9" opacity=".82"/>
      <circle cx="600" cy="85" r="8" fill="#d2e0e8"/><circle cx="600" cy="1715" r="8" fill="#d2e0e8"/>
    </svg>