<svg xmlns="http://www.w3.org/2000/svg" width="1200" height="1800" viewBox="0 0 1200 1800">
      <defs>
        <linearGradient id="sky" x2="0" y2="1"><stop stop-color="#111b38"/><stop offset=".57" stop-color="#533454"/><stop offset="1" stop-color="#d18252"/></linearGradient>
        <linearGradient id="land" x2=".7" y2="1"><stop stop-color="#694a53"/><stop offset="1" stop-color="#1b2a3c"/></linearGradient>
        <radialGradient id="halo"><stop stop-color="#f3d199" stop-opacity=".88"/><stop offset="1" stop-color="#f3d199" stop-opacity="0"/></radialGradient>
        <linearGradient id="fur" x2=".8" y2="1"><stop stop-color="#ddd1b9"/><stop offset=".68" stop-color="#9b9a8e"/><stop offset="1" stop-color="#626d69"/></linearGradient>
        <linearGradient id="metal" x2="1" y2="1"><stop stop-color="#fff0ba"/><stop offset=".46" stop-color="#ad8157"/><stop offset="1" stop-color="#f4d79b"/></linearGradient>
        <linearGradient id="blade" x2="1" y2="0"><stop stop-color="#fff5d5"/><stop offset=".48" stop-color="#9caec2"/><stop offset="1" stop-color="#ecf4ed"/></linearGradient>
      </defs>
      <rect width="1200" height="1800" fill="#0a1322"/>
      <rect x="24" y="24" width="1152" height="1752" rx="35" fill="url(#sky)"/>
      <g fill="#f6dfac"><circle cx="293" cy="357" r="4" opacity=".4"/><circle cx="886" cy="399" r="4" opacity=".55"/><circle cx="563" cy="322" r="2" opacity=".75"/><circle cx="785" cy="515" r="1" opacity=".4"/><circle cx="236" cy="307" r="1" opacity=".75"/><circle cx="562" cy="560" r="2" opacity=".4"/><circle cx="124" cy="428" r="2" opacity=".55"/><circle cx="485" cy="465" r="3" opacity=".4"/><circle cx="713" cy="120" r="2" opacity=".75"/><circle cx="492" cy="460" r="2" opacity=".4"/><circle cx="463" cy="358" r="4" opacity=".75"/><circle cx="834" cy="701" r="2" opacity=".75"/><circle cx="1129" cy="220" r="1" opacity=".75"/><circle cx="775" cy="773" r="2" opacity=".4"/><circle cx="598" cy="304" r="2" opacity=".75"/><circle cx="87" cy="658" r="4" opacity=".75"/><circle cx="669" cy="216" r="3" opacity=".55"/><circle cx="338" cy="323" r="3" opacity=".28"/><circle cx="1029" cy="558" r="1" opacity=".75"/><circle cx="686" cy="678" r="1" opacity=".75"/><circle cx="445" cy="437" r="1" opacity=".4"/><circle cx="669" cy="158" r="3" opacity=".55"/><circle cx="715" cy="671" r="2" opacity=".55"/><circle cx="976" cy="463" r="2" opacity=".4"/><circle cx="972" cy="191" r="3" opacity=".28"/><circle cx="425" cy="591" r="2" opacity=".28"/><circle cx="463" cy="793" r="2" opacity=".4"/><circle cx="1092" cy="248" r="2" opacity=".55"/><circle cx="811" cy="657" r="2" opacity=".55"/><circle cx="463" cy="301" r="2" opacity=".4"/><circle cx="227" cy="782" r="1" opacity=".75"/><circle cx="1122" cy="239" r="2" opacity=".28"/><circle cx="768" cy="194" r="2" opacity=".4"/><circle cx="390" cy="502" r="3" opacity=".28"/><circle cx="602" cy="820" r="2" opacity=".55"/><circle cx="766" cy="467" r="3" opacity=".75"/><circle cx="941" cy="814" r="2" opacity=".28"/><circle cx="720" cy="817" r="2" opacity=".4"/><circle cx="269" cy="530" r="2" opacity=".55"/><circle cx="599" cy="388" r="1" opacity=".75"/><circle cx="570" cy="430" r="1" opacity=".75"/><circle cx="338" cy="488" r="1" opacity=".4"/><circle cx="563" cy="245" r="2" opacity=".28"/><circle cx="750" cy="659" r="1" opacity=".55"/><circle cx="341" cy="593" r="1" opacity=".75"/><circle cx="222" cy="797" r="1" opacity=".55"/><circle cx="988" cy="706" r="2" opacity=".4"/><circle cx="359" cy="698" r="2" opacity=".28"/><circle cx="759" cy="763" r="1" opacity=".28"/><circle cx="268" cy="111" r="3" opacity=".4"/><circle cx="578" cy="423" r="4" opacity=".75"/><circle cx="1046" cy="108" r="1" opacity=".75"/><circle cx="609" cy="157" r="2" opacity=".4"/><circle cx="343" cy="568" r="2" opacity=".28"/><circle cx="281" cy="654" r="4" opacity=".28"/><circle cx="872" cy="592" r="4" opacity=".75"/><circle cx="977" cy="85" r="2" opacity=".75"/><circle cx="539" cy="837" r="4" opacity=".75"/><circle cx="751" cy="201" r="1" opacity=".28"/><circle cx="919" cy="222" r="4" opacity=".55"/><circle cx="366" cy="192" r="2" opacity=".4"/><circle cx="1072" cy="801" r="3" opacity=".28"/><circle cx="127" cy="536" r="1" opacity=".55"/><circle cx="722" cy="336" r="1" opacity=".28"/><circle cx="76" cy="304" r="4" opacity=".75"/><circle cx="482" cy="814" r="2" opacity=".55"/></g><circle cx="914" cy="366" r="170" fill="url(#halo)" opacity=".78"/><circle cx="914" cy="366" r="87" fill="#ffcf86" opacity=".7"/><path d="M211 556h22 M222 545v22" stroke="#f6d99e" stroke-width="2" opacity=".68"/><path d="M183 660h22 M194 649v22" stroke="#f6d99e" stroke-width="2" opacity=".68"/><path d="M552 601h22 M563 590v22" stroke="#f6d99e" stroke-width="2" opacity=".68"/><path d="M728 705h22 M739 694v22" stroke="#f6d99e" stroke-width="2" opacity=".68"/><path d="M348 455h22 M359 444v22" stroke="#f6d99e" stroke-width="2" opacity=".68"/><path d="M587 367h22 M598 356v22" stroke="#f6d99e" stroke-width="2" opacity=".68"/><path d="M281 356h22 M292 345v22" stroke="#f6d99e" stroke-width="2" opacity=".68"/><path d="M583 209h22 M594 198v22" stroke="#f6d99e" stroke-width="2" opacity=".68"/>
      <path d="M0 965 Q245 870 405 933 T802 919 T1200 971 V1800 H0Z" fill="url(#land)"/><path d="M0 1130 C210 1030 393 1110 583 1047 S950 1060 1200 994 V1800 H0Z" fill="#0b1b30" opacity=".46"/><path d="M0 1435 Q300 1275 600 1448 T1200 1370 V1800 H0Z" fill="#081827" opacity=".62"/><path d="M85 1640 Q165 1390 95 1270" fill="none" stroke="#d59b68" stroke-width="12" opacity=".28"/><path d="M100 1510q90 -65 120 -15q-80 40 -120 15 M96 1440q-85 -70 -115 -10q70 46 115 10" fill="#e1b972" opacity=".34"/><path d="M240 1640 Q320 1390 250 1270" fill="none" stroke="#d59b68" stroke-width="12" opacity=".28"/><path d="M255 1510q90 -65 120 -15q-80 40 -120 15 M251 1440q-85 -70 -115 -10q70 46 115 10" fill="#e1b972" opacity=".34"/><path d="M1010 1640 Q1090 1390 1020 1270" fill="none" stroke="#d59b68" stroke-width="12" opacity=".28"/><path d="M1025 1510q90 -65 120 -15q-80 40 -120 15 M1021 1440q-85 -70 -115 -10q70 46 115 10" fill="#e1b972" opacity=".34"/><path d="M1112 1640 Q1192 1390 1122 1270" fill="none" stroke="#d59b68" stroke-width="12" opacity=".28"/><path d="M1127 1510q90 -65 120 -15q-80 40 -120 15 M1123 1440q-85 -70 -115 -10q70 46 115 10" fill="#e1b972" opacity=".34"/>
      <path d="M100 620L330 760 490 630 650 780 895 580 1120 735" fill="none" stroke="#efc595" stroke-width="11" opacity=".18"/><path d="M0 510Q310 420 610 550T1200 440" fill="none" stroke="#d6c9bd" stroke-width="34" opacity=".14"/>
      <g transform="translate(204 681) rotate(8) scale(0.55)" opacity="0.78"><path d="M0 105Q-16 -50 0 -138" fill="none" stroke="#f6d5a0" stroke-width="25" stroke-linecap="round"/>
          <path d="M0 95Q-16 -50 0 -138" fill="none" stroke="#9e5d46" stroke-width="15" stroke-linecap="round"/>
          <path d="M-6 -70Q-83 -100 -87 -35Q-34 -28 -6 -70 M5 -12Q83 -60 88 -2Q38 18 5 -12" fill="#8aa777" stroke="#d9bc81" stroke-width="4"/>
          <path d="M0 -151Q-55 -192 0 -226Q55 -192 0 -151Z" fill="#ffd683" stroke="#fff0b5" stroke-width="6"/></g><g transform="translate(680 398) rotate(-8) scale(0.55)" opacity="0.78"><path d="M0 105Q-16 -50 0 -138" fill="none" stroke="#f6d5a0" stroke-width="25" stroke-linecap="round"/>
          <path d="M0 95Q-16 -50 0 -138" fill="none" stroke="#9e5d46" stroke-width="15" stroke-linecap="round"/>
          <path d="M-6 -70Q-83 -100 -87 -35Q-34 -28 -6 -70 M5 -12Q83 -60 88 -2Q38 18 5 -12" fill="#8aa777" stroke="#d9bc81" stroke-width="4"/>
          <path d="M0 -151Q-55 -192 0 -226Q55 -192 0 -151Z" fill="#ffd683" stroke="#fff0b5" stroke-width="6"/></g><g transform="translate(600 1025) scale(0.88 0.88)"><path d="M115 260Q330 315 240 75Q225 25 194 60Q276 211 115 186" fill="none" stroke="#626d69" stroke-width="73" stroke-linecap="round"/>
        <path d="M117 258Q288 287 224 84" fill="none" stroke="#ddd1b9" stroke-width="36" stroke-linecap="round" opacity=".8"/>
        <ellipse cx="0" cy="226" rx="159" ry="205" fill="url(#fur)" stroke="#626d69" stroke-width="10"/>
        <ellipse cx="2" cy="252" rx="106" ry="133" fill="#ddd1b9" opacity=".7"/>
        <ellipse cx="-94" cy="393" rx="64" ry="43" fill="#ddd1b9" stroke="#626d69" stroke-width="9"/>
        <ellipse cx="92" cy="393" rx="64" ry="43" fill="#ddd1b9" stroke="#626d69" stroke-width="9"/>
        <path d="M-152 -153L-128 -318Q-75 -301 -53 -235 Q0 -265 53 -235Q75 -301 128 -318L152 -153Q195 5 0 24Q-195 5 -152 -153Z" fill="url(#fur)" stroke="#626d69" stroke-width="10" stroke-linejoin="round"/>
        <path d="M-121 -273Q-84 -269 -63 -225L-126 -191Z M121 -273Q84 -269 63 -225L126 -191Z" fill="#d99b98" opacity=".85"/>
        <path d="M-115 -166Q-65 -206 -9 -182 M115 -166Q65 -206 9 -182" fill="none" stroke="#626d69" stroke-width="13" opacity=".46"/>
        <ellipse cx="-46" cy="-66" rx="20" ry="28" fill="#e9c273"/><ellipse cx="46" cy="-66" rx="20" ry="28" fill="#e9c273"/><path d="M-46 -86v43 M46 -86v43" stroke="#1e2934" stroke-width="10" stroke-linecap="round"/><circle cx="-53" cy="-76" r="6" fill="#fff4d4"/><circle cx="39" cy="-76" r="6" fill="#fff4d4"/>
        <ellipse cx="-27" cy="-9" rx="49" ry="35" fill="#f6e5cf"/><ellipse cx="27" cy="-9" rx="49" ry="35" fill="#f6e5cf"/>
        <path d="M-18 -30Q0 -43 18 -30L0 -12Z" fill="#986e79"/>
        <path d="M0 -11v17m0 0q-21 17 -43 0m43 0q21 17 43 0" fill="none" stroke="#626d69" stroke-width="7" stroke-linecap="round"/>
        <path d="M-52 -14Q-140 -43 -180 -35 M-50 4Q-139 4 -179 24 M52 -14Q140 -43 180 -35 M50 4Q139 4 179 24" fill="none" stroke="#f2dec8" stroke-width="5" opacity=".8"/>
        <path d="M-140 103Q0 151 140 103" fill="none" stroke="#d7b77d" stroke-width="16"/>
        <circle cy="139" r="23" fill="#f5d186" stroke="#906b5a" stroke-width="5"/>
        <path d="M-95 141Q-135 171 -119 211 M95 141Q135 171 119 211" fill="none" stroke="#626d69" stroke-width="12" opacity=".3"/></g><g transform="translate(1026 850) rotate(8) scale(0.55)" opacity="0.78"><path d="M0 105Q-16 -50 0 -138" fill="none" stroke="#f6d5a0" stroke-width="25" stroke-linecap="round"/>
          <path d="M0 95Q-16 -50 0 -138" fill="none" stroke="#9e5d46" stroke-width="15" stroke-linecap="round"/>
          <path d="M-6 -70Q-83 -100 -87 -35Q-34 -28 -6 -70 M5 -12Q83 -60 88 -2Q38 18 5 -12" fill="#8aa777" stroke="#d9bc81" stroke-width="4"/>
          <path d="M0 -151Q-55 -192 0 -226Q55 -192 0 -151Z" fill="#ffd683" stroke="#fff0b5" stroke-width="6"/></g><g transform="translate(680 1302) rotate(-8) scale(0.55)" opacity="0.78"><path d="M0 105Q-16 -50 0 -138" fill="none" stroke="#f6d5a0" stroke-width="25" stroke-linecap="round"/>
          <path d="M0 95Q-16 -50 0 -138" fill="none" stroke="#9e5d46" stroke-width="15" stroke-linecap="round"/>
          <path d="M-6 -70Q-83 -100 -87 -35Q-34 -28 -6 -70 M5 -12Q83 -60 88 -2Q38 18 5 -12" fill="#8aa777" stroke="#d9bc81" stroke-width="4"/>
          <path d="M0 -151Q-55 -192 0 -226Q55 -192 0 -151Z" fill="#ffd683" stroke="#fff0b5" stroke-width="6"/></g><g transform="translate(204 1019) rotate(8) scale(0.55)" opacity="0.78"><path d="M0 105Q-16 -50 0 -138" fill="none" stroke="#f6d5a0" stroke-width="25" stroke-linecap="round"/>
          <path d="M0 95Q-16 -50 0 -138" fill="none" stroke="#9e5d46" stroke-width="15" stroke-linecap="round"/>
          <path d="M-6 -70Q-83 -100 -87 -35Q-34 -28 -6 -70 M5 -12Q83 -60 88 -2Q38 18 5 -12" fill="#8aa777" stroke="#d9bc81" stroke-width="4"/>
          <path d="M0 -151Q-55 -192 0 -226Q55 -192 0 -151Z" fill="#ffd683" stroke="#fff0b5" stroke-width="6"/></g>
      
      <rect x="42" y="42" width="1116" height="1716" rx="24" fill="none" stroke="#d9b875" stroke-width="9" opacity=".86"/>
      <rect x="63" y="63" width="1074" height="1674" rx="16" fill="none" stroke="#f6e2ac" stroke-width="2" opacity=".58"/>
      <path d="M90 155V90h65 M1045 90h65v65 M90 1645v65h65 M1045 1710h65v-65" fill="none" stroke="#ffe5a9" stroke-width="9" opacity=".82"/>
      <circle cx="600" cy="85" r="8" fill="#f3b35f"/><circle cx="600" cy="1715" r="8" fill="#f3b35f"/>
    </svg>