<svg xmlns="http://www.w3.org/2000/svg" width="1200" height="1800" viewBox="0 0 1200 1800">
      <defs>
        <linearGradient id="sky" x2="0" y2="1"><stop stop-color="#111b38"/><stop offset=".57" stop-color="#533454"/><stop offset="1" stop-color="#d18252"/></linearGradient>
        <linearGradient id="land" x2=".7" y2="1"><stop stop-color="#694a53"/><stop offset="1" stop-color="#1b2a3c"/></linearGradient>
        <radialGradient id="halo"><stop stop-color="#f3d199" stop-opacity=".88"/><stop offset="1" stop-color="#f3d199" stop-opacity="0"/></radialGradient>
        <linearGradient id="fur" x2=".8" y2="1"><stop stop-color="#c6d5d3"/><stop offset=".68" stop-color="#748990"/><stop offset="1" stop-color="#49636c"/></linearGradient>
        <linearGradient id="metal" x2="1" y2="1"><stop stop-color="#fff0ba"/><stop offset=".46" stop-color="#ad8157"/><stop offset="1" stop-color="#f4d79b"/></linearGradient>
        <linearGradient id="blade" x2="1" y2="0"><stop stop-color="#fff5d5"/><stop offset=".48" stop-color="#9caec2"/><stop offset="1" stop-color="#ecf4ed"/></linearGradient>
      </defs>
      <rect width="1200" height="1800" fill="#0a1322"/>
      <rect x="24" y="24" width="1152" height="1752" rx="35" fill="url(#sky)"/>
      <g fill="#f6dfac"><circle cx="296" cy="568" r="3" opacity=".75"/><circle cx="916" cy="458" r="2" opacity=".75"/><circle cx="306" cy="780" r="3" opacity=".55"/><circle cx="866" cy="642" r="3" opacity=".55"/><circle cx="903" cy="498" r="4" opacity=".28"/><circle cx="187" cy="456" r="2" opacity=".28"/><circle cx="223" cy="223" r="1" opacity=".4"/><circle cx="473" cy="247" r="2" opacity=".55"/><circle cx="697" cy="786" r="2" opacity=".4"/><circle cx="804" cy="552" r="3" opacity=".28"/><circle cx="162" cy="617" r="2" opacity=".28"/><circle cx="414" cy="629" r="2" opacity=".75"/><circle cx="582" cy="159" r="2" opacity=".4"/><circle cx="1089" cy="351" r="2" opacity=".4"/><circle cx="1037" cy="644" r="2" opacity=".28"/><circle cx="564" cy="368" r="3" opacity=".4"/><circle cx="889" cy="712" r="3" opacity=".55"/><circle cx="1102" cy="158" r="2" opacity=".28"/><circle cx="322" cy="107" r="1" opacity=".55"/><circle cx="1124" cy="163" r="1" opacity=".28"/><circle cx="548" cy="648" r="1" opacity=".75"/><circle cx="385" cy="792" r="1" opacity=".4"/><circle cx="931" cy="326" r="2" opacity=".55"/><circle cx="1044" cy="315" r="2" opacity=".4"/><circle cx="888" cy="601" r="1" opacity=".75"/><circle cx="181" cy="315" r="2" opacity=".55"/><circle cx="111" cy="687" r="4" opacity=".55"/><circle cx="516" cy="362" r="2" opacity=".4"/><circle cx="147" cy="220" r="3" opacity=".55"/><circle cx="188" cy="730" r="2" opacity=".28"/><circle cx="1055" cy="671" r="2" opacity=".55"/><circle cx="796" cy="643" r="2" opacity=".4"/><circle cx="101" cy="351" r="2" opacity=".75"/><circle cx="490" cy="153" r="3" opacity=".4"/><circle cx="365" cy="789" r="2" opacity=".28"/><circle cx="914" cy="341" r="2" opacity=".4"/><circle cx="712" cy="487" r="4" opacity=".4"/><circle cx="731" cy="362" r="3" opacity=".75"/><circle cx="709" cy="649" r="4" opacity=".28"/><circle cx="433" cy="794" r="3" opacity=".4"/><circle cx="1022" cy="113" r="3" opacity=".75"/><circle cx="165" cy="319" r="1" opacity=".55"/><circle cx="1103" cy="687" r="3" opacity=".28"/><circle cx="621" cy="808" r="2" opacity=".75"/><circle cx="222" cy="203" r="2" opacity=".4"/><circle cx="743" cy="155" r="4" opacity=".28"/><circle cx="379" cy="809" r="1" opacity=".55"/><circle cx="448" cy="675" r="1" opacity=".75"/><circle cx="965" cy="819" r="1" opacity=".28"/><circle cx="1026" cy="301" r="2" opacity=".75"/><circle cx="474" cy="139" r="1" opacity=".75"/><circle cx="999" cy="126" r="2" opacity=".4"/><circle cx="779" cy="829" r="3" opacity=".55"/><circle cx="310" cy="628" r="1" opacity=".4"/><circle cx="556" cy="606" r="2" opacity=".55"/><circle cx="824" cy="288" r="3" opacity=".55"/><circle cx="344" cy="276" r="1" opacity=".55"/><circle cx="711" cy="260" r="2" opacity=".55"/><circle cx="1124" cy="494" r="2" opacity=".75"/><circle cx="803" cy="510" r="2" opacity=".4"/><circle cx="89" cy="608" r="3" opacity=".4"/><circle cx="1006" cy="346" r="2" opacity=".75"/><circle cx="493" cy="639" r="1" opacity=".55"/><circle cx="415" cy="492" r="2" opacity=".55"/><circle cx="379" cy="166" r="1" opacity=".28"/><circle cx="152" cy="668" r="2" opacity=".4"/></g><circle cx="914" cy="366" r="170" fill="url(#halo)" opacity=".78"/><circle cx="914" cy="366" r="87" fill="#ffcf86" opacity=".7"/><path d="M581 175h22 M592 164v22" stroke="#f6d99e" stroke-width="2" opacity=".68"/><path d="M426 275h22 M437 264v22" stroke="#f6d99e" stroke-width="2" opacity=".68"/><path d="M146 427h22 M157 416v22" stroke="#f6d99e" stroke-width="2" opacity=".68"/><path d="M453 593h22 M464 582v22" stroke="#f6d99e" stroke-width="2" opacity=".68"/><path d="M514 173h22 M525 162v22" stroke="#f6d99e" stroke-width="2" opacity=".68"/><path d="M207 408h22 M218 397v22" stroke="#f6d99e" stroke-width="2" opacity=".68"/><path d="M673 599h22 M684 588v22" stroke="#f6d99e" stroke-width="2" opacity=".68"/><path d="M353 353h22 M364 342v22" stroke="#f6d99e" stroke-width="2" opacity=".68"/>
      <path d="M0 965 Q245 870 405 933 T802 919 T1200 971 V1800 H0Z" fill="url(#land)"/><path d="M0 1130 C210 1030 393 1110 583 1047 S950 1060 1200 994 V1800 H0Z" fill="#0b1b30" opacity=".46"/><path d="M0 1435 Q300 1275 600 1448 T1200 1370 V1800 H0Z" fill="#081827" opacity=".62"/><path d="M85 1640 Q165 1390 95 1270" fill="none" stroke="#d59b68" stroke-width="12" opacity=".28"/><path d="M100 1510q90 -65 120 -15q-80 40 -120 15 M96 1440q-85 -70 -115 -10q70 46 115 10" fill="#e1b972" opacity=".34"/><path d="M240 1640 Q320 1390 250 1270" fill="none" stroke="#d59b68" stroke-width="12" opacity=".28"/><path d="M255 1510q90 -65 120 -15q-80 40 -120 15 M251 1440q-85 -70 -115 -10q70 46 115 10" fill="#e1b972" opacity=".34"/><path d="M1010 1640 Q1090 1390 1020 1270" fill="none" stroke="#d59b68" stroke-width="12" opacity=".28"/><path d="M1025 1510q90 -65 120 -15q-80 40 -120 15 M1021 1440q-85 -70 -115 -10q70 46 115 10" fill="#e1b972" opacity=".34"/><path d="M1112 1640 Q1192 1390 1122 1270" fill="none" stroke="#d59b68" stroke-width="12" opacity=".28"/><path d="M1127 1510q90 -65 120 -15q-80 40 -120 15 M1123 1440q-85 -70 -115 -10q70 46 115 10" fill="#e1b972" opacity=".34"/>
      <path d="M-100 1360Q520 1020 1300 1120" fill="none" stroke="#f3d7a5" stroke-width="55" opacity=".18"/><path d="M-100 1420Q540 1090 1300 1200" fill="none" stroke="#faf2c4" stroke-width="4" opacity=".4"/>
      <g transform="translate(840 530) rotate(0) scale(0.92)" opacity="0.78"><path d="M0 105Q-16 -50 0 -138" fill="none" stroke="#f6d5a0" stroke-width="25" stroke-linecap="round"/>
          <path d="M0 95Q-16 -50 0 -138" fill="none" stroke="#9e5d46" stroke-width="15" stroke-linecap="round"/>
          <path d="M-6 -70Q-83 -100 -87 -35Q-34 -28 -6 -70 M5 -12Q83 -60 88 -2Q38 18 5 -12" fill="#8aa777" stroke="#d9bc81" stroke-width="4"/>
          <path d="M0 -151Q-55 -192 0 -226Q55 -192 0 -151Z" fill="#ffd683" stroke="#fff0b5" stroke-width="6"/></g><g transform="translate(600 1025) scale(0.9 0.9)"><path d="M-180 195Q-395 45 -316 -56" fill="none" stroke="#49636c" stroke-width="60" stroke-linecap="round"/>
            <ellipse cx="-40" cy="166" rx="235" ry="125" fill="url(#fur)" stroke="#49636c" stroke-width="9"/>
            <path d="M-207 248l-34 148m117 -135 -10 132m164 -116 31 119m75 -147 66 145" stroke="#c6d5d3" stroke-width="61" stroke-linecap="round"/>
            <path d="M65 41l-16 -160 95 73 78 -104 37 163Q195 126 65 41Z" fill="#c6d5d3" stroke="#49636c" stroke-width="10"/>
            <ellipse cx="120" cy="24" rx="19" ry="25" fill="#e9c273"/><ellipse cx="203" cy="24" rx="19" ry="25" fill="#e9c273"/>
            <path d="M120 6v36 M203 6v36" stroke="#1e2934" stroke-width="10"/>
            <path d="M151 73l20 -4 -12 17Z" fill="#a07781"/>
            <path d="M84 91Q0 65 -46 81 M224 91q60 -20 94 -5" stroke="#f5debd" stroke-width="5"/>
            <path d="M52 122Q168 156 251 103" fill="none" stroke="#d7b77d" stroke-width="14"/><path d="M-114 115Q0 155 116 105L99 157Q-12 197 -117 155Z" fill="#ba7e77" stroke="#f2c09a" stroke-width="7"/><path d="M83 144l105 160 -45 17 -91 -148" fill="#ba7e77" stroke="#f2c09a" stroke-width="6"/></g>
      
      <rect x="42" y="42" width="1116" height="1716" rx="24" fill="none" stroke="#d9b875" stroke-width="9" opacity=".86"/>
      <rect x="63" y="63" width="1074" height="1674" rx="16" fill="none" stroke="#f6e2ac" stroke-width="2" opacity=".58"/>
      <path d="M90 155V90h65 M1045 90h65v65 M90 1645v65h65 M1045 1710h65v-65" fill="none" stroke="#ffe5a9" stroke-width="9" opacity=".82"/>
      <circle cx="600" cy="85" r="8" fill="#f3b35f"/><circle cx="600" cy="1715" r="8" fill="#f3b35f"/>
    </svg>