<svg xmlns="http://www.w3.org/2000/svg" width="1200" height="1800" viewBox="0 0 1200 1800">
      <defs>
        <linearGradient id="sky" x2="0" y2="1"><stop stop-color="#111b38"/><stop offset=".57" stop-color="#533454"/><stop offset="1" stop-color="#d18252"/></linearGradient>
        <linearGradient id="land" x2=".7" y2="1"><stop stop-color="#694a53"/><stop offset="1" stop-color="#1b2a3c"/></linearGradient>
        <radialGradient id="halo"><stop stop-color="#f3d199" stop-opacity=".88"/><stop offset="1" stop-color="#f3d199" stop-opacity="0"/></radialGradient>
        <linearGradient id="fur" x2=".8" y2="1"><stop stop-color="#9e8990"/><stop offset=".68" stop-color="#554d6b"/><stop offset="1" stop-color="#363850"/></linearGradient>
        <linearGradient id="metal" x2="1" y2="1"><stop stop-color="#fff0ba"/><stop offset=".46" stop-color="#ad8157"/><stop offset="1" stop-color="#f4d79b"/></linearGradient>
        <linearGradient id="blade" x2="1" y2="0"><stop stop-color="#fff5d5"/><stop offset=".48" stop-color="#9caec2"/><stop offset="1" stop-color="#ecf4ed"/></linearGradient>
      </defs>
      <rect width="1200" height="1800" fill="#0a1322"/>
      <rect x="24" y="24" width="1152" height="1752" rx="35" fill="url(#sky)"/>
      <g fill="#f6dfac"><circle cx="1002" cy="819" r="2" opacity=".75"/><circle cx="1097" cy="553" r="2" opacity=".75"/><circle cx="868" cy="182" r="1" opacity=".4"/><circle cx="436" cy="114" r="4" opacity=".55"/><circle cx="310" cy="536" r="2" opacity=".28"/><circle cx="101" cy="392" r="2" opacity=".75"/><circle cx="240" cy="128" r="3" opacity=".75"/><circle cx="188" cy="710" r="2" opacity=".28"/><circle cx="74" cy="302" r="4" opacity=".28"/><circle cx="479" cy="468" r="1" opacity=".75"/><circle cx="661" cy="536" r="2" opacity=".4"/><circle cx="843" cy="479" r="2" opacity=".28"/><circle cx="178" cy="472" r="3" opacity=".75"/><circle cx="132" cy="611" r="2" opacity=".4"/><circle cx="384" cy="607" r="2" opacity=".4"/><circle cx="192" cy="300" r="4" opacity=".28"/><circle cx="307" cy="553" r="2" opacity=".4"/><circle cx="1002" cy="675" r="2" opacity=".75"/><circle cx="642" cy="533" r="4" opacity=".55"/><circle cx="555" cy="616" r="2" opacity=".4"/><circle cx="989" cy="192" r="2" opacity=".4"/><circle cx="975" cy="654" r="2" opacity=".4"/><circle cx="353" cy="434" r="2" opacity=".75"/><circle cx="521" cy="635" r="2" opacity=".75"/><circle cx="1040" cy="204" r="1" opacity=".28"/><circle cx="875" cy="610" r="1" opacity=".28"/><circle cx="517" cy="821" r="4" opacity=".75"/><circle cx="217" cy="395" r="2" opacity=".75"/><circle cx="401" cy="810" r="2" opacity=".75"/><circle cx="880" cy="592" r="3" opacity=".75"/><circle cx="600" cy="427" r="1" opacity=".28"/><circle cx="1079" cy="105" r="3" opacity=".55"/><circle cx="995" cy="537" r="1" opacity=".75"/><circle cx="308" cy="602" r="4" opacity=".28"/><circle cx="822" cy="403" r="4" opacity=".55"/><circle cx="139" cy="359" r="1" opacity=".55"/><circle cx="1073" cy="379" r="3" opacity=".75"/><circle cx="902" cy="774" r="3" opacity=".75"/><circle cx="265" cy="169" r="2" opacity=".28"/><circle cx="910" cy="521" r="4" opacity=".28"/><circle cx="165" cy="642" r="2" opacity=".55"/><circle cx="982" cy="328" r="4" opacity=".75"/><circle cx="976" cy="655" r="4" opacity=".75"/><circle cx="175" cy="207" r="3" opacity=".75"/><circle cx="310" cy="614" r="1" opacity=".55"/><circle cx="705" cy="161" r="2" opacity=".4"/><circle cx="1089" cy="338" r="2" opacity=".55"/><circle cx="1032" cy="555" r="3" opacity=".28"/><circle cx="793" cy="567" r="1" opacity=".55"/><circle cx="993" cy="632" r="4" opacity=".75"/><circle cx="132" cy="299" r="2" opacity=".4"/><circle cx="754" cy="660" r="2" opacity=".75"/><circle cx="484" cy="736" r="4" opacity=".4"/><circle cx="682" cy="662" r="2" opacity=".28"/><circle cx="1117" cy="288" r="2" opacity=".4"/><circle cx="175" cy="269" r="4" opacity=".75"/><circle cx="1069" cy="487" r="2" opacity=".28"/><circle cx="873" cy="544" r="2" opacity=".4"/><circle cx="931" cy="147" r="3" opacity=".28"/><circle cx="544" cy="262" r="4" opacity=".55"/><circle cx="325" cy="487" r="2" opacity=".4"/><circle cx="395" cy="636" r="2" opacity=".55"/><circle cx="292" cy="322" r="2" opacity=".28"/><circle cx="1020" cy="123" r="2" opacity=".28"/><circle cx="1038" cy="413" r="2" opacity=".75"/><circle cx="812" cy="577" r="1" opacity=".4"/></g><circle cx="914" cy="366" r="170" fill="url(#halo)" opacity=".78"/><circle cx="914" cy="366" r="87" fill="#ffcf86" opacity=".7"/><path d="M156 210h22 M167 199v22" stroke="#f6d99e" stroke-width="2" opacity=".68"/><path d="M641 490h22 M652 479v22" stroke="#f6d99e" stroke-width="2" opacity=".68"/><path d="M889 569h22 M900 558v22" stroke="#f6d99e" stroke-width="2" opacity=".68"/><path d="M688 604h22 M699 593v22" stroke="#f6d99e" stroke-width="2" opacity=".68"/><path d="M903 261h22 M914 250v22" stroke="#f6d99e" stroke-width="2" opacity=".68"/><path d="M980 625h22 M991 614v22" stroke="#f6d99e" stroke-width="2" opacity=".68"/><path d="M130 445h22 M141 434v22" stroke="#f6d99e" stroke-width="2" opacity=".68"/><path d="M233 387h22 M244 376v22" stroke="#f6d99e" stroke-width="2" opacity=".68"/>
      <path d="M0 965 Q245 870 405 933 T802 919 T1200 971 V1800 H0Z" fill="url(#land)"/><path d="M0 1130 C210 1030 393 1110 583 1047 S950 1060 1200 994 V1800 H0Z" fill="#0b1b30" opacity=".46"/><path d="M0 1435 Q300 1275 600 1448 T1200 1370 V1800 H0Z" fill="#081827" opacity=".62"/><path d="M85 1640 Q165 1390 95 1270" fill="none" stroke="#d59b68" stroke-width="12" opacity=".28"/><path d="M100 1510q90 -65 120 -15q-80 40 -120 15 M96 1440q-85 -70 -115 -10q70 46 115 10" fill="#e1b972" opacity=".34"/><path d="M240 1640 Q320 1390 250 1270" fill="none" stroke="#d59b68" stroke-width="12" opacity=".28"/><path d="M255 1510q90 -65 120 -15q-80 40 -120 15 M251 1440q-85 -70 -115 -10q70 46 115 10" fill="#e1b972" opacity=".34"/><path d="M1010 1640 Q1090 1390 1020 1270" fill="none" stroke="#d59b68" stroke-width="12" opacity=".28"/><path d="M1025 1510q90 -65 120 -15q-80 40 -120 15 M1021 1440q-85 -70 -115 -10q70 46 115 10" fill="#e1b972" opacity=".34"/><path d="M1112 1640 Q1192 1390 1122 1270" fill="none" stroke="#d59b68" stroke-width="12" opacity=".28"/><path d="M1127 1510q90 -65 120 -15q-80 40 -120 15 M1123 1440q-85 -70 -115 -10q70 46 115 10" fill="#e1b972" opacity=".34"/>
      <path d="M210 1260V805Q600 520 990 805V1260" fill="none" stroke="#e9c68e" stroke-width="23" opacity=".4"/><path d="M225 1280H975" stroke="#f5dca9" stroke-width="18" opacity=".4"/><path d="M300 755L400 620 510 700 600 535 690 700 800 620 900 755Z" fill="#e8bc73" opacity=".32"/>
      <g transform="translate(840 530) rotate(0) scale(0.92)" opacity="0.78"><path d="M0 105Q-16 -50 0 -138" fill="none" stroke="#f6d5a0" stroke-width="25" stroke-linecap="round"/>
          <path d="M0 95Q-16 -50 0 -138" fill="none" stroke="#9e5d46" stroke-width="15" stroke-linecap="round"/>
          <path d="M-6 -70Q-83 -100 -87 -35Q-34 -28 -6 -70 M5 -12Q83 -60 88 -2Q38 18 5 -12" fill="#8aa777" stroke="#d9bc81" stroke-width="4"/>
          <path d="M0 -151Q-55 -192 0 -226Q55 -192 0 -151Z" fill="#ffd683" stroke="#fff0b5" stroke-width="6"/></g><g transform="translate(600 1025) scale(0.98 0.98)"><path d="M115 260Q330 315 240 75Q225 25 194 60Q276 211 115 186" fill="none" stroke="#363850" stroke-width="73" stroke-linecap="round"/>
        <path d="M117 258Q288 287 224 84" fill="none" stroke="#9e8990" stroke-width="36" stroke-linecap="round" opacity=".8"/>
        <ellipse cx="0" cy="226" rx="159" ry="205" fill="url(#fur)" stroke="#363850" stroke-width="10"/>
        <ellipse cx="2" cy="252" rx="106" ry="133" fill="#9e8990" opacity=".7"/>
        <ellipse cx="-94" cy="393" rx="64" ry="43" fill="#9e8990" stroke="#363850" stroke-width="9"/>
        <ellipse cx="92" cy="393" rx="64" ry="43" fill="#9e8990" stroke="#363850" stroke-width="9"/>
        <path d="M-152 -153L-128 -318Q-75 -301 -53 -235 Q0 -265 53 -235Q75 -301 128 -318L152 -153Q195 5 0 24Q-195 5 -152 -153Z" fill="url(#fur)" stroke="#363850" stroke-width="10" stroke-linejoin="round"/>
        <path d="M-121 -273Q-84 -269 -63 -225L-126 -191Z M121 -273Q84 -269 63 -225L126 -191Z" fill="#d99b98" opacity=".85"/>
        <path d="M-115 -166Q-65 -206 -9 -182 M115 -166Q65 -206 9 -182" fill="none" stroke="#363850" stroke-width="13" opacity=".46"/>
        <ellipse cx="-46" cy="-66" rx="20" ry="28" fill="#e9c273"/><ellipse cx="46" cy="-66" rx="20" ry="28" fill="#e9c273"/><path d="M-46 -86v43 M46 -86v43" stroke="#1e2934" stroke-width="10" stroke-linecap="round"/><circle cx="-53" cy="-76" r="6" fill="#fff4d4"/><circle cx="39" cy="-76" r="6" fill="#fff4d4"/>
        <ellipse cx="-27" cy="-9" rx="49" ry="35" fill="#f6e5cf"/><ellipse cx="27" cy="-9" rx="49" ry="35" fill="#f6e5cf"/>
        <path d="M-18 -30Q0 -43 18 -30L0 -12Z" fill="#986e79"/>
        <path d="M0 -11v17m0 0q-21 17 -43 0m43 0q21 17 43 0" fill="none" stroke="#363850" stroke-width="7" stroke-linecap="round"/>
        <path d="M-52 -14Q-140 -43 -180 -35 M-50 4Q-139 4 -179 24 M52 -14Q140 -43 180 -35 M50 4Q139 4 179 24" fill="none" stroke="#f2dec8" stroke-width="5" opacity=".8"/>
        <path d="M-140 103Q0 151 140 103" fill="none" stroke="#d7b77d" stroke-width="16"/>
        <circle cy="139" r="23" fill="#f5d186" stroke="#906b5a" stroke-width="5"/>
        <path d="M-95 141Q-135 171 -119 211 M95 141Q135 171 119 211" fill="none" stroke="#363850" stroke-width="12" opacity=".3"/><path d="M-98 -273L-112 -348 -53 -305 0 -390 53 -305 112 -348 98 -273Z" fill="url(#metal)" stroke="#ffe2a8" stroke-width="9"/><circle cy="-318" r="12" fill="#f2d39c"/></g>
      
      <rect x="42" y="42" width="1116" height="1716" rx="24" fill="none" stroke="#d9b875" stroke-width="9" opacity=".86"/>
      <rect x="63" y="63" width="1074" height="1674" rx="16" fill="none" stroke="#f6e2ac" stroke-width="2" opacity=".58"/>
      <path d="M90 155V90h65 M1045 90h65v65 M90 1645v65h65 M1045 1710h65v-65" fill="none" stroke="#ffe5a9" stroke-width="9" opacity=".82"/>
      <circle cx="600" cy="85" r="8" fill="#f3b35f"/><circle cx="600" cy="1715" r="8" fill="#f3b35f"/>
    </svg>