<svg xmlns="http://www.w3.org/2000/svg" width="1200" height="1800" viewBox="0 0 1200 1800">
      <defs>
        <linearGradient id="sky" x2="0" y2="1"><stop stop-color="#111b38"/><stop offset=".57" stop-color="#533454"/><stop offset="1" stop-color="#d18252"/></linearGradient>
        <linearGradient id="land" x2=".7" y2="1"><stop stop-color="#694a53"/><stop offset="1" stop-color="#1b2a3c"/></linearGradient>
        <radialGradient id="halo"><stop stop-color="#f3d199" stop-opacity=".88"/><stop offset="1" stop-color="#f3d199" stop-opacity="0"/></radialGradient>
        <linearGradient id="fur" x2=".8" y2="1"><stop stop-color="#c6d5d3"/><stop offset=".68" stop-color="#748990"/><stop offset="1" stop-color="#49636c"/></linearGradient>
        <linearGradient id="metal" x2="1" y2="1"><stop stop-color="#fff0ba"/><stop offset=".46" stop-color="#ad8157"/><stop offset="1" stop-color="#f4d79b"/></linearGradient>
        <linearGradient id="blade" x2="1" y2="0"><stop stop-color="#fff5d5"/><stop offset=".48" stop-color="#9caec2"/><stop offset="1" stop-color="#ecf4ed"/></linearGradient>
      </defs>
      <rect width="1200" height="1800" fill="#0a1322"/>
      <rect x="24" y="24" width="1152" height="1752" rx="35" fill="url(#sky)"/>
      <g fill="#f6dfac"><circle cx="294" cy="798" r="1" opacity=".75"/><circle cx="570" cy="254" r="1" opacity=".28"/><circle cx="662" cy="114" r="4" opacity=".55"/><circle cx="328" cy="675" r="2" opacity=".4"/><circle cx="512" cy="263" r="4" opacity=".55"/><circle cx="140" cy="684" r="2" opacity=".55"/><circle cx="227" cy="832" r="4" opacity=".55"/><circle cx="465" cy="691" r="1" opacity=".55"/><circle cx="643" cy="453" r="4" opacity=".75"/><circle cx="1015" cy="831" r="2" opacity=".55"/><circle cx="684" cy="235" r="2" opacity=".75"/><circle cx="923" cy="365" r="1" opacity=".28"/><circle cx="741" cy="830" r="1" opacity=".4"/><circle cx="495" cy="118" r="2" opacity=".55"/><circle cx="650" cy="728" r="2" opacity=".4"/><circle cx="203" cy="251" r="2" opacity=".75"/><circle cx="702" cy="638" r="2" opacity=".55"/><circle cx="396" cy="313" r="3" opacity=".75"/><circle cx="203" cy="175" r="2" opacity=".75"/><circle cx="397" cy="143" r="2" opacity=".4"/><circle cx="687" cy="121" r="1" opacity=".4"/><circle cx="394" cy="796" r="4" opacity=".28"/><circle cx="875" cy="680" r="3" opacity=".28"/><circle cx="1039" cy="648" r="1" opacity=".75"/><circle cx="867" cy="671" r="2" opacity=".55"/><circle cx="454" cy="485" r="4" opacity=".4"/><circle cx="347" cy="697" r="2" opacity=".4"/><circle cx="137" cy="97" r="1" opacity=".28"/><circle cx="1062" cy="648" r="1" opacity=".55"/><circle cx="986" cy="711" r="2" opacity=".75"/><circle cx="179" cy="373" r="1" opacity=".55"/><circle cx="1092" cy="734" r="3" opacity=".55"/><circle cx="179" cy="225" r="2" opacity=".28"/><circle cx="956" cy="499" r="3" opacity=".75"/><circle cx="871" cy="401" r="2" opacity=".28"/><circle cx="255" cy="465" r="4" opacity=".55"/><circle cx="757" cy="561" r="1" opacity=".55"/><circle cx="134" cy="101" r="4" opacity=".28"/><circle cx="561" cy="586" r="2" opacity=".4"/><circle cx="626" cy="656" r="2" opacity=".4"/><circle cx="965" cy="509" r="4" opacity=".55"/><circle cx="527" cy="150" r="4" opacity=".75"/><circle cx="271" cy="220" r="4" opacity=".4"/><circle cx="80" cy="156" r="2" opacity=".4"/><circle cx="625" cy="350" r="2" opacity=".55"/><circle cx="871" cy="415" r="3" opacity=".4"/><circle cx="1060" cy="454" r="3" opacity=".28"/><circle cx="1070" cy="743" r="2" opacity=".4"/><circle cx="1001" cy="122" r="3" opacity=".28"/><circle cx="679" cy="690" r="3" opacity=".55"/><circle cx="139" cy="402" r="2" opacity=".75"/><circle cx="186" cy="540" r="4" opacity=".55"/><circle cx="936" cy="502" r="2" opacity=".4"/><circle cx="588" cy="582" r="2" opacity=".4"/><circle cx="916" cy="382" r="2" opacity=".75"/><circle cx="153" cy="745" r="4" opacity=".75"/><circle cx="1038" cy="706" r="2" opacity=".28"/><circle cx="323" cy="305" r="1" opacity=".55"/><circle cx="225" cy="159" r="2" opacity=".55"/><circle cx="1000" cy="752" r="2" opacity=".55"/><circle cx="316" cy="207" r="2" opacity=".55"/><circle cx="887" cy="281" r="2" opacity=".28"/><circle cx="852" cy="412" r="3" opacity=".28"/><circle cx="777" cy="626" r="2" opacity=".55"/><circle cx="855" cy="831" r="4" opacity=".55"/><circle cx="769" cy="450" r="1" opacity=".75"/></g><circle cx="914" cy="366" r="170" fill="url(#halo)" opacity=".78"/><circle cx="914" cy="366" r="87" fill="#ffcf86" opacity=".7"/><path d="M510 252h22 M521 241v22" stroke="#f6d99e" stroke-width="2" opacity=".68"/><path d="M1036 406h22 M1047 395v22" stroke="#f6d99e" stroke-width="2" opacity=".68"/><path d="M449 563h22 M460 552v22" stroke="#f6d99e" stroke-width="2" opacity=".68"/><path d="M652 236h22 M663 225v22" stroke="#f6d99e" stroke-width="2" opacity=".68"/><path d="M1053 306h22 M1064 295v22" stroke="#f6d99e" stroke-width="2" opacity=".68"/><path d="M975 404h22 M986 393v22" stroke="#f6d99e" stroke-width="2" opacity=".68"/><path d="M1023 194h22 M1034 183v22" stroke="#f6d99e" stroke-width="2" opacity=".68"/><path d="M478 349h22 M489 338v22" stroke="#f6d99e" stroke-width="2" opacity=".68"/>
      <path d="M0 965 Q245 870 405 933 T802 919 T1200 971 V1800 H0Z" fill="url(#land)"/><path d="M0 1130 C210 1030 393 1110 583 1047 S950 1060 1200 994 V1800 H0Z" fill="#0b1b30" opacity=".46"/><path d="M0 1435 Q300 1275 600 1448 T1200 1370 V1800 H0Z" fill="#081827" opacity=".62"/><path d="M85 1640 Q165 1390 95 1270" fill="none" stroke="#d59b68" stroke-width="12" opacity=".28"/><path d="M100 1510q90 -65 120 -15q-80 40 -120 15 M96 1440q-85 -70 -115 -10q70 46 115 10" fill="#e1b972" opacity=".34"/><path d="M240 1640 Q320 1390 250 1270" fill="none" stroke="#d59b68" stroke-width="12" opacity=".28"/><path d="M255 1510q90 -65 120 -15q-80 40 -120 15 M251 1440q-85 -70 -115 -10q70 46 115 10" fill="#e1b972" opacity=".34"/><path d="M1010 1640 Q1090 1390 1020 1270" fill="none" stroke="#d59b68" stroke-width="12" opacity=".28"/><path d="M1025 1510q90 -65 120 -15q-80 40 -120 15 M1021 1440q-85 -70 -115 -10q70 46 115 10" fill="#e1b972" opacity=".34"/><path d="M1112 1640 Q1192 1390 1122 1270" fill="none" stroke="#d59b68" stroke-width="12" opacity=".28"/><path d="M1127 1510q90 -65 120 -15q-80 40 -120 15 M1123 1440q-85 -70 -115 -10q70 46 115 10" fill="#e1b972" opacity=".34"/>
      <path d="M130 1300Q450 1080 760 1050T1100 800" fill="none" stroke="#eacb9b" stroke-width="32" opacity=".24"/><path d="M0 1640L1200 1120" stroke="#f4dfad" opacity=".12" stroke-width="150"/>
      <g transform="translate(204 681) rotate(8) scale(0.55)" opacity="0.78"><path d="M0 105Q-16 -50 0 -138" fill="none" stroke="#f6d5a0" stroke-width="25" stroke-linecap="round"/>
          <path d="M0 95Q-16 -50 0 -138" fill="none" stroke="#9e5d46" stroke-width="15" stroke-linecap="round"/>
          <path d="M-6 -70Q-83 -100 -87 -35Q-34 -28 -6 -70 M5 -12Q83 -60 88 -2Q38 18 5 -12" fill="#8aa777" stroke="#d9bc81" stroke-width="4"/>
          <path d="M0 -151Q-55 -192 0 -226Q55 -192 0 -151Z" fill="#ffd683" stroke="#fff0b5" stroke-width="6"/></g><g transform="translate(485 407) rotate(-8) scale(0.55)" opacity="0.78"><path d="M0 105Q-16 -50 0 -138" fill="none" stroke="#f6d5a0" stroke-width="25" stroke-linecap="round"/>
          <path d="M0 95Q-16 -50 0 -138" fill="none" stroke="#9e5d46" stroke-width="15" stroke-linecap="round"/>
          <path d="M-6 -70Q-83 -100 -87 -35Q-34 -28 -6 -70 M5 -12Q83 -60 88 -2Q38 18 5 -12" fill="#8aa777" stroke="#d9bc81" stroke-width="4"/>
          <path d="M0 -151Q-55 -192 0 -226Q55 -192 0 -151Z" fill="#ffd683" stroke="#fff0b5" stroke-width="6"/></g><g transform="translate(858 484) rotate(8) scale(0.55)" opacity="0.78"><path d="M0 105Q-16 -50 0 -138" fill="none" stroke="#f6d5a0" stroke-width="25" stroke-linecap="round"/>
          <path d="M0 95Q-16 -50 0 -138" fill="none" stroke="#9e5d46" stroke-width="15" stroke-linecap="round"/>
          <path d="M-6 -70Q-83 -100 -87 -35Q-34 -28 -6 -70 M5 -12Q83 -60 88 -2Q38 18 5 -12" fill="#8aa777" stroke="#d9bc81" stroke-width="4"/>
          <path d="M0 -151Q-55 -192 0 -226Q55 -192 0 -151Z" fill="#ffd683" stroke="#fff0b5" stroke-width="6"/></g><g transform="translate(600 1025) scale(-0.9 0.9)"><path d="M-180 195Q-395 45 -316 -56" fill="none" stroke="#49636c" stroke-width="60" stroke-linecap="round"/>
            <ellipse cx="-40" cy="166" rx="235" ry="125" fill="url(#fur)" stroke="#49636c" stroke-width="9"/>
            <path d="M-207 248l-34 148m117 -135 -10 132m164 -116 31 119m75 -147 66 145" stroke="#c6d5d3" stroke-width="61" stroke-linecap="round"/>
            <path d="M65 41l-16 -160 95 73 78 -104 37 163Q195 126 65 41Z" fill="#c6d5d3" stroke="#49636c" stroke-width="10"/>
            <ellipse cx="120" cy="24" rx="19" ry="25" fill="#e9c273"/><ellipse cx="203" cy="24" rx="19" ry="25" fill="#e9c273"/>
            <path d="M120 6v36 M203 6v36" stroke="#1e2934" stroke-width="10"/>
            <path d="M151 73l20 -4 -12 17Z" fill="#a07781"/>
            <path d="M84 91Q0 65 -46 81 M224 91q60 -20 94 -5" stroke="#f5debd" stroke-width="5"/>
            <path d="M52 122Q168 156 251 103" fill="none" stroke="#d7b77d" stroke-width="14"/></g><g transform="translate(1026 850) rotate(-8) scale(0.55)" opacity="0.78"><path d="M0 105Q-16 -50 0 -138" fill="none" stroke="#f6d5a0" stroke-width="25" stroke-linecap="round"/>
          <path d="M0 95Q-16 -50 0 -138" fill="none" stroke="#9e5d46" stroke-width="15" stroke-linecap="round"/>
          <path d="M-6 -70Q-83 -100 -87 -35Q-34 -28 -6 -70 M5 -12Q83 -60 88 -2Q38 18 5 -12" fill="#8aa777" stroke="#d9bc81" stroke-width="4"/>
          <path d="M0 -151Q-55 -192 0 -226Q55 -192 0 -151Z" fill="#ffd683" stroke="#fff0b5" stroke-width="6"/></g><g transform="translate(858 1216) rotate(8) scale(0.55)" opacity="0.78"><path d="M0 105Q-16 -50 0 -138" fill="none" stroke="#f6d5a0" stroke-width="25" stroke-linecap="round"/>
          <path d="M0 95Q-16 -50 0 -138" fill="none" stroke="#9e5d46" stroke-width="15" stroke-linecap="round"/>
          <path d="M-6 -70Q-83 -100 -87 -35Q-34 -28 -6 -70 M5 -12Q83 -60 88 -2Q38 18 5 -12" fill="#8aa777" stroke="#d9bc81" stroke-width="4"/>
          <path d="M0 -151Q-55 -192 0 -226Q55 -192 0 -151Z" fill="#ffd683" stroke="#fff0b5" stroke-width="6"/></g><g transform="translate(485 1293) rotate(-8) scale(0.55)" opacity="0.78"><path d="M0 105Q-16 -50 0 -138" fill="none" stroke="#f6d5a0" stroke-width="25" stroke-linecap="round"/>
          <path d="M0 95Q-16 -50 0 -138" fill="none" stroke="#9e5d46" stroke-width="15" stroke-linecap="round"/>
          <path d="M-6 -70Q-83 -100 -87 -35Q-34 -28 -6 -70 M5 -12Q83 -60 88 -2Q38 18 5 -12" fill="#8aa777" stroke="#d9bc81" stroke-width="4"/>
          <path d="M0 -151Q-55 -192 0 -226Q55 -192 0 -151Z" fill="#ffd683" stroke="#fff0b5" stroke-width="6"/></g><g transform="translate(204 1019) rotate(8) scale(0.55)" opacity="0.78"><path d="M0 105Q-16 -50 0 -138" fill="none" stroke="#f6d5a0" stroke-width="25" stroke-linecap="round"/>
          <path d="M0 95Q-16 -50 0 -138" fill="none" stroke="#9e5d46" stroke-width="15" stroke-linecap="round"/>
          <path d="M-6 -70Q-83 -100 -87 -35Q-34 -28 -6 -70 M5 -12Q83 -60 88 -2Q38 18 5 -12" fill="#8aa777" stroke="#d9bc81" stroke-width="4"/>
          <path d="M0 -151Q-55 -192 0 -226Q55 -192 0 -151Z" fill="#ffd683" stroke="#fff0b5" stroke-width="6"/></g>
      
      <rect x="42" y="42" width="1116" height="1716" rx="24" fill="none" stroke="#d9b875" stroke-width="9" opacity=".86"/>
      <rect x="63" y="63" width="1074" height="1674" rx="16" fill="none" stroke="#f6e2ac" stroke-width="2" opacity=".58"/>
      <path d="M90 155V90h65 M1045 90h65v65 M90 1645v65h65 M1045 1710h65v-65" fill="none" stroke="#ffe5a9" stroke-width="9" opacity=".82"/>
      <circle cx="600" cy="85" r="8" fill="#f3b35f"/><circle cx="600" cy="1715" r="8" fill="#f3b35f"/>
    </svg>